SplineFontDB: 3.0
FontName: OpenDyslexic
FullName: OpenDyslexic
FamilyName: OpenDyslexic
Weight: Book
Copyright: Attribution-NonCommercial-ShareAlike 3.0 Unported (CC BY-NC-SA 3.0)
Version: 0.600
ItalicAngle: 0
UnderlinePosition: -142
UnderlineWidth: 143
Ascent: 1638
Descent: 410
sfntRevision: 0x00009999
LayerCount: 2
Layer: 0 1 "Back"  1
Layer: 1 1 "Fore"  0
XUID: [1021 306 1845811580 84018]
FSType: 0
OS2Version: 3
OS2_WeightWidthSlopeOnly: 0
OS2_UseTypoMetrics: 1
CreationTime: 1322235960
ModificationTime: 1332813340
PfmFamily: 17
TTFWeight: 400
TTFWidth: 5
LineGap: 53
VLineGap: 0
Panose: 2 0 5 3 0 0 0 2 0 4
OS2TypoAscent: -82
OS2TypoAOffset: 1
OS2TypoDescent: -16
OS2TypoDOffset: 1
OS2TypoLinegap: 105
OS2WinAscent: 0
OS2WinAOffset: 1
OS2WinDescent: 0
OS2WinDOffset: 1
HheadAscent: 0
HheadAOffset: 1
HheadDescent: 0
HheadDOffset: 1
OS2SubXSize: 1351
OS2SubYSize: 1228
OS2SubXOff: 0
OS2SubYOff: -446
OS2SupXSize: 1351
OS2SupYSize: 1228
OS2SupXOff: 0
OS2SupYOff: 595
OS2StrikeYSize: 102
OS2StrikeYPos: 512
OS2FamilyClass: 2050
OS2Vendor: 'Ab  '
OS2CodePages: 00000001.00000000
OS2UnicodeRanges: 800000af.4000204a.00000000.00000000
Lookup: 258 0 0 "'kern' Horizontal Kerning in Latin lookup 0"  {"'kern' Horizontal Kerning in Latin lookup 0 subtable"  } ['kern' ('latn' <'dflt' > ) ]
MarkAttachClasses: 1
DEI: 91125
TtTable: prep
PUSHW_1
 7
CALL
SVTCA[y-axis]
PUSHW_3
 255
 4
 14
CALL
PUSHW_1
 254
DUP
RCVT
RDTG
ROUND[Black]
RTG
WCVTP
PUSHW_1
 640
NPUSHB
 255
 251
 254
 3
 250
 20
 3
 249
 37
 3
 248
 50
 3
 247
 150
 3
 246
 14
 3
 245
 254
 3
 244
 254
 3
 243
 37
 3
 242
 14
 3
 241
 150
 3
 240
 37
 3
 239
 138
 65
 5
 239
 254
 3
 238
 150
 3
 237
 150
 3
 236
 250
 3
 235
 250
 3
 234
 254
 3
 233
 58
 3
 232
 66
 3
 231
 254
 3
 230
 50
 3
 229
 228
 83
 5
 229
 150
 3
 228
 138
 65
 5
 228
 83
 3
 227
 226
 47
 5
 227
 250
 3
 226
 47
 3
 225
 254
 3
 224
 254
 3
 223
 50
 3
 222
 20
 3
 221
 150
 3
 220
 254
 3
 219
 18
 3
 218
 125
 3
 217
 187
 3
 216
 254
 3
 214
 138

StartChar: .notdef
Encoding: 65536 -1 0
Width: 1573
Flags: W
LayerCount: 2
Fore
SplineSet
275 -362 m 1,0,-1
 275 1444 l 1,1,-1
 1299 1444 l 1,2,-1
 1299 -362 l 1,3,-1
 275 -362 l 1,0,-1
390 -68 m 1,4,-1
 1185 -68 l 1,5,-1
 1185 1329 l 1,6,-1
 390 1329 l 1,7,-1
 390 -68 l 1,4,-1
EndSplineSet
Validated: 1
EndChar

StartChar: exclam
Encoding: 33 33 4
Width: 628
Flags: W
LayerCount: 2
Fore
SplineSet
216 254 m 1,0,-1
 429 254 l 1,1,-1
 449 0 l 1,2,-1
 196 0 l 1,3,-1
 216 254 l 1,0,-1
226 1493 m 1,4,-1
 419 1493 l 1,5,-1
 429 838 l 1,6,-1
 459 481 l 1,7,-1
 187 481 l 1,8,-1
 206 838 l 1,9,-1
 226 1493 l 1,4,-1
EndSplineSet
Validated: 1
EndChar

StartChar: quotedbl
Encoding: 34 34 5
Width: 1132
Flags: W
LayerCount: 2
Fore
SplineSet
456 1493 m 1,0,-1
 467 906 l 1,1,-1
 266 906 l 1,2,-1
 277 1493 l 1,3,-1
 456 1493 l 1,0,-1
856 1493 m 1,4,-1
 867 906 l 1,5,-1
 666 906 l 1,6,-1
 676 1493 l 1,7,-1
 856 1493 l 1,4,-1
EndSplineSet
Validated: 1
EndChar

StartChar: numbersign
Encoding: 35 35 6
Width: 1515
Flags: W
LayerCount: 2
Fore
SplineSet
946 901 m 1,0,-1
 655 901 l 1,1,-1
 571 567 l 1,2,-1
 864 567 l 1,3,-1
 946 901 l 1,0,-1
796 1470 m 1,4,-1
 692 1055 l 1,5,-1
 984 1055 l 1,6,-1
 1089 1470 l 1,7,-1
 1249 1470 l 1,8,-1
 1146 1055 l 1,9,-1
 1458 1055 l 1,10,-1
 1458 901 l 1,11,-1
 1107 901 l 1,12,-1
 1025 567 l 1,13,-1
 1343 567 l 1,14,-1
 1343 414 l 1,15,-1
 986 414 l 1,16,-1
 882 0 l 1,17,-1
 722 0 l 1,18,-1
 825 414 l 1,19,-1
 532 414 l 1,20,-1
 429 0 l 1,21,-1
 268 0 l 1,22,-1
 372 414 l 1,23,-1
 57 414 l 1,24,-1
 57 567 l 1,25,-1
 409 567 l 1,26,-1
 493 901 l 1,27,-1
 171 901 l 1,28,-1
 171 1055 l 1,29,-1
 532 1055 l 1,30,-1
 634 1470 l 1,31,-1
 796 1470 l 1,4,-1
EndSplineSet
Validated: 1
EndChar

StartChar: dollar
Encoding: 36 36 7
Width: 1069
Flags: W
LayerCount: 2
Fore
SplineSet
622 -294 m 1,0,-1
 442 -291 l 1,1,-1
 466 10 l 1,2,3
 371 13 371 13 266.5 37.5 c 128,-1,4
 162 62 162 62 57 109 c 1,5,-1
 61 349 l 1,6,7
 162 283 162 283 266 248.5 c 128,-1,8
 370 214 370 214 471 212 c 1,9,-1
 478 607 l 1,10,11
 267 647 267 647 173 735 c 128,-1,12
 79 823 79 823 72 973 c 1,13,14
 75 1136 75 1136 185.5 1228 c 128,-1,15
 296 1320 296 1320 500 1330 c 1,16,-1
 504 1565 l 1,17,-1
 604 1563 l 1,18,-1
 600 1331 l 1,19,20
 693 1326 693 1326 780 1309 c 128,-1,21
 867 1292 867 1292 949 1263 c 1,22,-1
 946 1108 l 1,23,24
 864 1152 864 1152 777 1176.5 c 128,-1,25
 690 1201 690 1201 598 1206 c 1,26,-1
 590 740 l 1,27,28
 817 701 817 701 917.5 619 c 128,-1,29
 1018 537 1018 537 1025 381 c 1,30,31
 1022 212 1022 212 907 116.5 c 128,-1,32
 792 21 792 21 607 9 c 1,33,-1
 622 -294 l 1,0,-1
472 750 m 1,34,-1
 482 1200 l 1,35,36
 356 1187 356 1187 285 1124 c 128,-1,37
 214 1061 214 1061 214 973 c 0,38,39
 214 887 214 887 280.5 829 c 128,-1,40
 347 771 347 771 472 750 c 1,34,-1
582 578 m 1,41,-1
 592 205 l 1,42,43
 699 222 699 222 763.5 247 c 128,-1,44
 828 272 828 272 828 362 c 0,45,46
 828 450 828 450 766.5 502 c 128,-1,47
 705 554 705 554 582 578 c 1,41,-1
EndSplineSet
Validated: 1
EndChar

StartChar: percent
Encoding: 37 37 8
Width: 2029
Flags: W
LayerCount: 2
Fore
SplineSet
1529 657 m 0,0,1
 1442 657 1442 657 1392.5 588 c 128,-1,2
 1343 519 1343 519 1343 397 c 0,3,4
 1343 276 1343 276 1392.5 206.5 c 128,-1,5
 1442 137 1442 137 1529 137 c 0,6,7
 1614 137 1614 137 1663.5 206.5 c 128,-1,8
 1713 276 1713 276 1713 397 c 256,9,10
 1713 518 1713 518 1663.5 587.5 c 128,-1,11
 1614 657 1614 657 1529 657 c 0,0,1
1529 784 m 0,12,13
 1687 784 1687 784 1780 674 c 128,-1,14
 1873 564 1873 564 1873 377 c 256,15,16
 1873 190 1873 190 1779.5 80.5 c 128,-1,17
 1686 -29 1686 -29 1529 -29 c 0,18,19
 1369 -29 1369 -29 1276 80.5 c 128,-1,20
 1183 190 1183 190 1183 377 c 0,21,22
 1183 565 1183 565 1276.5 674.5 c 128,-1,23
 1370 784 1370 784 1529 784 c 0,12,13
497 1393 m 256,24,25
 411 1393 411 1393 361.5 1320 c 128,-1,26
 312 1247 312 1247 312 1120 c 0,27,28
 312 991 312 991 361 918.5 c 128,-1,29
 410 846 410 846 497 846 c 256,30,31
 584 846 584 846 633.5 918.5 c 128,-1,32
 683 991 683 991 683 1120 c 0,33,34
 683 1246 683 1246 633 1319.5 c 128,-1,35
 583 1393 583 1393 497 1393 c 256,24,25
1409 1520 m 1,36,-1
 1570 1520 l 1,37,-1
 627 -29 l 1,38,-1
 466 -29 l 1,39,-1
 1409 1520 l 1,36,-1
497 1520 m 256,40,41
 655 1520 655 1520 749 1410.5 c 128,-1,42
 843 1301 843 1301 843 1114 c 0,43,44
 843 925 843 925 749.5 816 c 128,-1,45
 656 707 656 707 497 707 c 256,46,47
 338 707 338 707 245.5 816.5 c 128,-1,48
 153 926 153 926 153 1114 c 0,49,50
 153 1300 153 1300 246 1410 c 128,-1,51
 339 1520 339 1520 497 1520 c 256,40,41
EndSplineSet
Validated: 1
EndChar

StartChar: ampersand
Encoding: 38 38 9
Width: 1619
Flags: W
LayerCount: 2
Fore
SplineSet
483 843 m 1,0,1
 391 761 391 761 348 680 c 128,-1,2
 305 599 305 599 305 510 c 0,3,4
 305 363 305 363 412 265 c 128,-1,5
 519 167 519 167 680 167 c 0,6,7
 776 167 776 167 860 199 c 128,-1,8
 944 231 944 231 1017 295 c 1,9,-1
 483 843 l 1,0,1
602 955 m 1,10,-1
 1150 415 l 1,11,12
 1209 504 1209 504 1227 595.5 c 128,-1,13
 1245 687 1245 687 1251 801 c 1,14,-1
 1437 801 l 1,15,16
 1425 669 1425 669 1403 540 c 128,-1,17
 1381 411 1381 411 1288 285 c 1,18,-1
 1567 0 l 1,19,-1
 1315 0 l 1,20,-1
 1172 147 l 1,21,22
 1068 58 1068 58 954 14.5 c 128,-1,23
 840 -29 840 -29 709 -29 c 0,24,25
 468 -29 468 -29 315 108.5 c 128,-1,26
 162 246 162 246 162 461 c 0,27,28
 162 589 162 589 229 701.5 c 128,-1,29
 296 814 296 814 430 913 c 1,30,31
 382 976 382 976 357 1038.5 c 128,-1,32
 332 1101 332 1101 332 1161 c 0,33,34
 332 1323 332 1323 443 1421.5 c 128,-1,35
 554 1520 554 1520 738 1520 c 0,36,37
 821 1520 821 1520 903.5 1502 c 128,-1,38
 986 1484 986 1484 1071 1448 c 1,39,-1
 1001 1306 l 1,40,41
 914 1353 914 1353 835 1377.5 c 128,-1,42
 756 1402 756 1402 688 1402 c 0,43,44
 583 1402 583 1402 517.5 1346.5 c 128,-1,45
 452 1291 452 1291 452 1203 c 0,46,47
 452 1152 452 1152 481.5 1100.5 c 128,-1,48
 511 1049 511 1049 602 955 c 1,10,-1
EndSplineSet
Validated: 1
EndChar

StartChar: quotesingle
Encoding: 39 39 10
Width: 712
Flags: W
LayerCount: 2
Fore
SplineSet
445 1493 m 1,0,-1
 445 938 l 1,1,-1
 275 938 l 1,2,-1
 275 1493 l 1,3,-1
 445 1493 l 1,0,-1
EndSplineSet
Validated: 1
EndChar

StartChar: parenleft
Encoding: 40 40 11
Width: 667
Flags: W
LayerCount: 2
Fore
SplineSet
630 1547 m 1,0,1
 476 1330 476 1330 391.5 1111.5 c 128,-1,2
 307 893 307 893 297 663 c 1,3,4
 307 432 307 432 342.5 201 c 128,-1,5
 378 -30 378 -30 491 -270 c 1,6,-1
 281 -256 l 1,7,8
 182 -9 182 -9 137.5 223.5 c 128,-1,9
 93 456 93 456 93 680 c 1,10,11
 112 902 112 902 205.5 1120.5 c 128,-1,12
 299 1339 299 1339 470 1561 c 1,13,-1
 630 1547 l 1,0,1
EndSplineSet
Validated: 1
EndChar

StartChar: parenright
Encoding: 41 41 12
Width: 670
Flags: W
LayerCount: 2
Fore
SplineSet
189 1587 m 1,0,-1
 348 1573 l 1,1,2
 477 1325 477 1325 521.5 1093.5 c 128,-1,3
 566 862 566 862 567 640 c 1,4,5
 567 416 567 416 473 196.5 c 128,-1,6
 379 -23 379 -23 259 -244 c 1,7,-1
 30 -230 l 1,8,9
 182 -13 182 -13 267 206.5 c 128,-1,10
 352 426 352 426 373 657 c 1,11,12
 373 887 373 887 337 1116.5 c 128,-1,13
 301 1346 301 1346 189 1587 c 1,0,-1
EndSplineSet
Validated: 1
EndChar

StartChar: asterisk
Encoding: 42 42 13
Width: 986
Flags: W
LayerCount: 2
Fore
SplineSet
944 1247 m 1,0,-1
 585 1053 l 1,1,-1
 944 858 l 1,2,-1
 886 760 l 1,3,-1
 550 963 l 1,4,-1
 550 586 l 1,5,-1
 436 586 l 1,6,-1
 436 963 l 1,7,-1
 100 760 l 1,8,-1
 42 858 l 1,9,-1
 401 1053 l 1,10,-1
 42 1247 l 1,11,-1
 100 1346 l 1,12,-1
 436 1143 l 1,13,-1
 436 1520 l 1,14,-1
 550 1520 l 1,15,-1
 550 1143 l 1,16,-1
 886 1346 l 1,17,-1
 944 1247 l 1,0,-1
EndSplineSet
Validated: 1
EndChar

StartChar: plus
Encoding: 43 43 14
Width: 1286
Flags: W
LayerCount: 2
Fore
SplineSet
727 1284 m 1,0,-1
 727 727 l 1,1,-1
 1284 727 l 1,2,-1
 1284 557 l 1,3,-1
 727 557 l 1,4,-1
 727 0 l 1,5,-1
 559 0 l 1,6,-1
 559 557 l 1,7,-1
 2 557 l 1,8,-1
 2 727 l 1,9,-1
 559 727 l 1,10,-1
 559 1284 l 1,11,-1
 727 1284 l 1,0,-1
EndSplineSet
Validated: 1
EndChar

StartChar: comma
Encoding: 44 44 15
Width: 543
Flags: W
LayerCount: 2
Fore
SplineSet
209 244 m 1,0,-1
 460 244 l 1,1,-1
 460 32 l 1,2,-1
 236 -288 l 1,3,-1
 107 -288 l 1,4,-1
 209 32 l 1,5,-1
 209 244 l 1,0,-1
EndSplineSet
Validated: 1
EndChar

StartChar: hyphen
Encoding: 45 45 16
Width: 1059
Flags: W
LayerCount: 2
Fore
SplineSet
268 643 m 1,0,-1
 807 653 l 1,1,-1
 800 488 l 1,2,-1
 261 479 l 1,3,-1
 268 643 l 1,0,-1
EndSplineSet
Validated: 1
EndChar

StartChar: period
Encoding: 46 46 17
Width: 845
Flags: W
LayerCount: 2
Fore
SplineSet
275 323 m 1,0,-1
 574 323 l 1,1,-1
 574 0 l 1,2,-1
 275 0 l 1,3,-1
 275 323 l 1,0,-1
EndSplineSet
Validated: 1
EndChar

StartChar: slash
Encoding: 47 47 18
Width: 742
Flags: W
LayerCount: 2
Fore
SplineSet
580 1474 m 1,0,-1
 730 1469 l 1,1,-1
 232 -198 l 1,2,-1
 2 -190 l 1,3,-1
 580 1474 l 1,0,-1
EndSplineSet
Validated: 1
EndChar

StartChar: zero
Encoding: 48 48 19
Width: 1397
Flags: W
LayerCount: 2
Fore
SplineSet
709 1440 m 0,0,1
 553 1440 553 1440 474.5 1302.5 c 128,-1,2
 396 1165 396 1165 396 890 c 0,3,4
 396 606 396 606 464.5 473.5 c 128,-1,5
 533 341 533 341 689 341 c 0,6,7
 846 341 846 341 924.5 478.5 c 128,-1,8
 1003 616 1003 616 1023 890 c 1,9,10
 1023 1165 1023 1165 944.5 1302.5 c 128,-1,11
 866 1440 866 1440 709 1440 c 0,0,1
709 1520 m 256,12,13
 960 1520 960 1520 1087.5 1321.5 c 128,-1,14
 1215 1123 1215 1123 1215 745 c 1,15,16
 1205 368 1205 368 1072.5 169.5 c 128,-1,17
 940 -29 940 -29 689 -29 c 256,18,19
 438 -29 438 -29 310.5 169.5 c 128,-1,20
 183 368 183 368 183 745 c 1,21,22
 193 1123 193 1123 325.5 1321.5 c 128,-1,23
 458 1520 458 1520 709 1520 c 256,12,13
EndSplineSet
Validated: 1
EndChar

StartChar: one
Encoding: 49 49 20
Width: 1206
Flags: W
LayerCount: 2
Fore
SplineSet
258 280 m 1,0,-1
 588 280 l 1,1,-1
 588 1309 l 1,2,-1
 229 1237 l 1,3,-1
 229 1421 l 1,4,-1
 586 1493 l 1,5,-1
 788 1493 l 1,6,-1
 788 280 l 1,7,-1
 1118 280 l 1,8,-1
 1118 0 l 1,9,-1
 258 0 l 1,10,-1
 258 280 l 1,0,-1
EndSplineSet
Validated: 1
EndChar

StartChar: two
Encoding: 50 50 21
Width: 1399
Flags: W
LayerCount: 2
Fore
SplineSet
694 290 m 1,0,-1
 1189 290 l 1,1,-1
 1189 0 l 1,2,-1
 241 0 l 1,3,-1
 241 290 l 1,4,5
 398 420 398 420 575.5 555 c 128,-1,6
 753 690 753 690 804 748 c 0,7,8
 901 857 901 857 939.5 932.5 c 128,-1,9
 978 1008 978 1008 978 1081 c 0,10,11
 978 1200 978 1200 894.5 1275 c 128,-1,12
 811 1350 811 1350 677 1350 c 0,13,14
 582 1350 582 1350 476.5 1317 c 128,-1,15
 371 1284 371 1284 251 1217 c 1,16,-1
 251 1421 l 1,17,18
 373 1470 373 1470 479 1495 c 128,-1,19
 585 1520 585 1520 673 1520 c 0,20,21
 905 1520 905 1520 1043 1404 c 128,-1,22
 1181 1288 1181 1288 1181 1094 c 0,23,24
 1181 1002 1181 1002 1146.5 919.5 c 128,-1,25
 1112 837 1112 837 1021 725 c 1,26,27
 996 696 996 696 862 557.5 c 128,-1,28
 728 419 728 419 694 290 c 1,0,-1
EndSplineSet
Validated: 1
EndChar

StartChar: three
Encoding: 51 51 22
Width: 1343
Flags: W
LayerCount: 2
Fore
SplineSet
859 805 m 1,0,1
 1004 794 1004 794 1085.5 696 c 128,-1,2
 1167 598 1167 598 1167 454 c 0,3,4
 1167 213 1167 213 1015 92 c 128,-1,5
 863 -29 863 -29 583 -29 c 0,6,7
 489 -29 489 -29 389.5 -10.5 c 128,-1,8
 290 8 290 8 184 45 c 1,9,-1
 184 360 l 1,10,11
 268 311 268 311 368 286 c 128,-1,12
 468 261 468 261 577 261 c 0,13,14
 767 261 767 261 866.5 346 c 128,-1,15
 966 431 966 431 966 484 c 0,16,17
 966 586 966 586 873.5 660.5 c 128,-1,18
 781 735 781 735 616 735 c 2,19,-1
 442 735 l 1,20,-1
 442 901 l 1,21,-1
 624 901 l 2,22,23
 773 901 773 901 852 960.5 c 128,-1,24
 931 1020 931 1020 931 1132 c 0,25,26
 931 1247 931 1247 849.5 1308.5 c 128,-1,27
 768 1370 768 1370 616 1370 c 0,28,29
 533 1370 533 1370 438 1352 c 128,-1,30
 343 1334 343 1334 229 1296 c 1,31,-1
 229 1456 l 1,32,33
 344 1488 344 1488 444.5 1504 c 128,-1,34
 545 1520 545 1520 634 1520 c 0,35,36
 864 1520 864 1520 998 1415.5 c 128,-1,37
 1132 1311 1132 1311 1132 1133 c 0,38,39
 1132 1009 1132 1009 1061 923.5 c 128,-1,40
 990 838 990 838 859 805 c 1,0,1
EndSplineSet
Validated: 1
EndChar

StartChar: four
Encoding: 52 52 23
Width: 1198
Flags: W
LayerCount: 2
Fore
SplineSet
682 1387 m 1,0,-1
 172 590 l 1,1,-1
 672 590 l 1,2,-1
 682 1387 l 1,0,-1
629 1493 m 1,3,-1
 883 1493 l 1,4,-1
 893 590 l 1,5,-1
 1096 590 l 1,6,-1
 1096 422 l 1,7,-1
 893 422 l 1,8,-1
 913 0 l 1,9,-1
 642 0 l 1,10,-1
 662 422 l 1,11,-1
 8 422 l 1,12,-1
 8 547 l 1,13,-1
 629 1493 l 1,3,-1
EndSplineSet
Validated: 1
EndChar

StartChar: five
Encoding: 53 53 24
Width: 1299
Flags: W
LayerCount: 2
Fore
SplineSet
285 1493 m 1,0,-1
 1078 1493 l 1,1,-1
 1078 1343 l 1,2,-1
 450 1343 l 1,3,-1
 450 957 l 1,4,5
 514 972 514 972 558 979.5 c 128,-1,6
 602 987 602 987 646 987 c 0,7,8
 896 987 896 987 1042 850 c 128,-1,9
 1188 713 1188 713 1188 479 c 0,10,11
 1188 238 1188 238 1038 104.5 c 128,-1,12
 888 -29 888 -29 615 -29 c 0,13,14
 521 -29 521 -29 423.5 -13 c 128,-1,15
 326 3 326 3 222 35 c 1,16,-1
 222 348 l 1,17,18
 312 299 312 299 408 275 c 128,-1,19
 504 251 504 251 611 251 c 0,20,21
 784 251 784 251 880 342 c 128,-1,22
 976 433 976 433 976 509 c 0,23,24
 976 665 976 665 880 741 c 128,-1,25
 784 817 784 817 611 817 c 0,26,27
 530 817 530 817 449.5 799 c 128,-1,28
 369 781 369 781 285 743 c 1,29,-1
 285 1493 l 1,0,-1
EndSplineSet
Validated: 1
EndChar

StartChar: six
Encoding: 54 54 25
Width: 1370
Flags: W
LayerCount: 2
Fore
SplineSet
704 827 m 256,0,1
 568 827 568 827 488.5 734 c 128,-1,2
 409 641 409 641 409 479 c 0,3,4
 409 378 409 378 488.5 319.5 c 128,-1,5
 568 261 568 261 704 261 c 256,6,7
 840 261 840 261 919.5 319.5 c 128,-1,8
 999 378 999 378 999 479 c 0,9,10
 999 641 999 641 919.5 734 c 128,-1,11
 840 827 840 827 704 827 c 256,0,1
1105 1460 m 1,12,-1
 1105 1276 l 1,13,14
 1029 1312 1029 1312 951.5 1331 c 128,-1,15
 874 1350 874 1350 798 1350 c 0,16,17
 598 1350 598 1350 492.5 1215 c 128,-1,18
 387 1080 387 1080 372 807 c 1,19,20
 431 894 431 894 520 940.5 c 128,-1,21
 609 987 609 987 716 987 c 0,22,23
 941 987 941 987 1071.5 850.5 c 128,-1,24
 1202 714 1202 714 1202 479 c 0,25,26
 1202 249 1202 249 1066 110 c 128,-1,27
 930 -29 930 -29 704 -29 c 0,28,29
 445 -29 445 -29 308 169.5 c 128,-1,30
 171 368 171 368 171 745 c 0,31,32
 171 1099 171 1099 339 1309.5 c 128,-1,33
 507 1520 507 1520 790 1520 c 0,34,35
 866 1520 866 1520 943.5 1505 c 128,-1,36
 1021 1490 1021 1490 1105 1460 c 1,12,-1
EndSplineSet
Validated: 1
EndChar

StartChar: seven
Encoding: 55 55 26
Width: 1078
Flags: W
LayerCount: 2
Fore
SplineSet
38 1493 m 1,0,-1
 988 1493 l 1,1,-1
 988 1407 l 1,2,-1
 616 0 l 1,3,-1
 255 0 l 1,4,-1
 805 1343 l 1,5,-1
 38 1343 l 1,6,-1
 38 1493 l 1,0,-1
EndSplineSet
Validated: 1
EndChar

StartChar: eight
Encoding: 56 56 27
Width: 1398
Flags: W
LayerCount: 2
Fore
SplineSet
699 729 m 0,0,1
 555 729 555 729 472.5 652 c 128,-1,2
 390 575 390 575 390 440 c 0,3,4
 390 365 390 365 472.5 293 c 128,-1,5
 555 221 555 221 699 221 c 256,6,7
 843 221 843 221 926 293.5 c 128,-1,8
 1009 366 1009 366 1009 440 c 0,9,10
 1009 575 1009 575 926.5 652 c 128,-1,11
 844 729 844 729 699 729 c 0,0,1
497 795 m 1,12,13
 367 827 367 827 304.5 916 c 128,-1,14
 242 1005 242 1005 242 1133 c 0,15,16
 242 1292 242 1292 359.5 1396 c 128,-1,17
 477 1500 477 1500 699 1500 c 0,18,19
 922 1500 922 1500 1039 1396 c 128,-1,20
 1156 1292 1156 1292 1156 1133 c 0,21,22
 1156 1005 1156 1005 1093.5 916 c 128,-1,23
 1031 827 1031 827 902 795 c 1,24,25
 1048 761 1048 761 1139.5 662 c 128,-1,26
 1231 563 1231 563 1231 420 c 0,27,28
 1231 203 1231 203 1088.5 87 c 128,-1,29
 946 -29 946 -29 699 -29 c 256,30,31
 452 -29 452 -29 309.5 87 c 128,-1,32
 167 203 167 203 167 420 c 0,33,34
 167 563 167 563 259 662 c 128,-1,35
 351 761 351 761 497 795 c 1,12,13
423 1174 m 0,36,37
 423 1058 423 1058 495.5 993 c 128,-1,38
 568 928 568 928 699 928 c 0,39,40
 829 928 829 928 902.5 993 c 128,-1,41
 976 1058 976 1058 976 1174 c 0,42,43
 976 1270 976 1270 902.5 1335 c 128,-1,44
 829 1400 829 1400 699 1400 c 0,45,46
 568 1400 568 1400 495.5 1335 c 128,-1,47
 423 1270 423 1270 423 1174 c 0,36,37
EndSplineSet
Validated: 1
EndChar

StartChar: nine
Encoding: 57 57 28
Width: 1378
Flags: W
LayerCount: 2
Fore
SplineSet
274 31 m 1,0,-1
 274 335 l 1,1,2
 350 299 350 299 428 280 c 128,-1,3
 506 261 506 261 581 261 c 0,4,5
 781 261 781 261 886.5 335.5 c 128,-1,6
 992 410 992 410 1007 684 c 1,7,8
 949 598 949 598 860 552 c 128,-1,9
 771 506 771 506 663 506 c 0,10,11
 439 506 439 506 308.5 641.5 c 128,-1,12
 178 777 178 777 178 1012 c 0,13,14
 178 1242 178 1242 314 1381 c 128,-1,15
 450 1520 450 1520 676 1520 c 0,16,17
 935 1520 935 1520 1071.5 1321.5 c 128,-1,18
 1208 1123 1208 1123 1208 745 c 0,19,20
 1208 392 1208 392 1040.5 181.5 c 128,-1,21
 873 -29 873 -29 590 -29 c 0,22,23
 514 -29 514 -29 436 -14 c 128,-1,24
 358 1 358 1 274 31 c 1,0,-1
659 806 m 0,25,26
 824 806 824 806 921 844 c 128,-1,27
 1018 882 1018 882 1018 1044 c 0,28,29
 1018 1205 1018 1205 921 1298.5 c 128,-1,30
 824 1392 824 1392 659 1392 c 0,31,32
 493 1392 493 1392 396 1298.5 c 128,-1,33
 299 1205 299 1205 299 1044 c 0,34,35
 299 882 299 882 396 844 c 128,-1,36
 493 806 493 806 659 806 c 0,25,26
EndSplineSet
Validated: 1
EndChar

StartChar: colon
Encoding: 58 58 29
Width: 806
Flags: W
LayerCount: 2
Fore
SplineSet
275 306 m 1,0,-1
 536 306 l 1,1,-1
 536 0 l 1,2,-1
 275 0 l 1,3,-1
 275 306 l 1,0,-1
275 1101 m 1,4,-1
 536 1101 l 1,5,-1
 536 816 l 1,6,-1
 275 816 l 1,7,-1
 275 1101 l 1,4,-1
EndSplineSet
Validated: 1
EndChar

StartChar: semicolon
Encoding: 59 59 30
Width: 555
Flags: W
LayerCount: 2
Fore
SplineSet
182 1096 m 1,0,-1
 425 1096 l 1,1,-1
 425 803 l 1,2,-1
 182 803 l 1,3,-1
 182 1096 l 1,0,-1
187 218 m 1,4,-1
 421 218 l 1,5,-1
 421 27 l 1,6,-1
 239 -328 l 1,7,-1
 96 -328 l 1,8,-1
 187 27 l 1,9,-1
 187 218 l 1,4,-1
EndSplineSet
Validated: 1
EndChar

StartChar: less
Encoding: 60 60 31
Width: 1569
Flags: W
LayerCount: 2
Fore
SplineSet
1324 987 m 1,0,-1
 264 711 l 1,1,-1
 1261 258 l 1,2,-1
 1240 17 l 1,3,-1
 3 591 l 1,4,-1
 23 817 l 1,5,-1
 1340 1168 l 1,6,-1
 1324 987 l 1,0,-1
EndSplineSet
Validated: 1
EndChar

StartChar: equal
Encoding: 61 61 32
Width: 1831
Flags: W
LayerCount: 2
Fore
SplineSet
275 930 m 1,0,-1
 1557 930 l 1,1,-1
 1557 762 l 1,2,-1
 275 762 l 1,3,-1
 275 930 l 1,0,-1
275 552 m 1,4,-1
 1557 552 l 1,5,-1
 1557 352 l 1,6,-1
 275 352 l 1,7,-1
 275 552 l 1,4,-1
EndSplineSet
Validated: 1
EndChar

StartChar: greater
Encoding: 62 62 33
Width: 1568
Flags: W
LayerCount: 2
Fore
SplineSet
313 1107 m 1,0,-1
 329 1289 l 1,1,-1
 1565 714 l 1,2,-1
 1546 488 l 1,3,-1
 228 137 l 1,4,-1
 249 378 l 1,5,-1
 1307 652 l 1,6,-1
 313 1107 l 1,0,-1
EndSplineSet
Validated: 1
EndChar

StartChar: question
Encoding: 63 63 34
Width: 961
Flags: W
LayerCount: 2
Fore
SplineSet
304 274 m 1,0,-1
 567 274 l 1,1,-1
 567 -10 l 1,2,-1
 304 -10 l 1,3,-1
 304 274 l 1,0,-1
571 401 m 1,4,-1
 310 401 l 1,5,-1
 310 555 l 2,6,7
 310 656 310 656 338 726 c 128,-1,8
 366 796 366 796 456 882 c 1,9,-1
 556 971 l 1,10,11
 633 1034 633 1034 668.5 1071 c 128,-1,12
 704 1108 704 1108 714 1157 c 1,13,14
 714 1246 714 1246 648.5 1316 c 128,-1,15
 583 1386 583 1386 475 1386 c 0,16,17
 396 1386 396 1386 306.5 1351 c 128,-1,18
 217 1316 217 1316 120 1249 c 1,19,-1
 120 1407 l 1,20,21
 214 1464 214 1464 310.5 1492 c 128,-1,22
 407 1520 407 1520 510 1520 c 0,23,24
 694 1520 694 1520 800.5 1423 c 128,-1,25
 907 1326 907 1326 907 1167 c 0,26,27
 907 1091 907 1091 861 1022.5 c 128,-1,28
 815 954 815 954 735 868 c 1,29,-1
 657 782 l 1,30,31
 630 735 630 735 610.5 708.5 c 128,-1,32
 591 682 591 682 583 657 c 0,33,34
 577 636 577 636 574 606 c 128,-1,35
 571 576 571 576 571 524 c 2,36,-1
 571 401 l 1,4,-1
EndSplineSet
Validated: 1
EndChar

StartChar: at
Encoding: 64 64 35
Width: 2080
Flags: W
LayerCount: 2
Fore
SplineSet
760 619 m 0,0,1
 760 491 760 491 831 418 c 128,-1,2
 902 345 902 345 1026 345 c 0,3,4
 1149 345 1149 345 1219.5 418.5 c 128,-1,5
 1290 492 1290 492 1290 619 c 0,6,7
 1290 744 1290 744 1218 818 c 128,-1,8
 1146 892 1146 892 1024 892 c 0,9,10
 903 892 903 892 831.5 818.5 c 128,-1,11
 760 745 760 745 760 619 c 0,0,1
1335 238 m 1,12,13
 1275 161 1275 161 1197.5 124.5 c 128,-1,14
 1120 88 1120 88 1017 88 c 0,15,16
 845 88 845 88 737.5 212.5 c 128,-1,17
 630 337 630 337 630 537 c 256,18,19
 630 737 630 737 738 862 c 128,-1,20
 846 987 846 987 1017 987 c 0,21,22
 1120 987 1120 987 1198 949.5 c 128,-1,23
 1276 912 1276 912 1335 836 c 1,24,-1
 1335 967 l 1,25,-1
 1478 967 l 1,26,-1
 1478 231 l 1,27,28
 1624 253 1624 253 1706.5 364.5 c 128,-1,29
 1789 476 1789 476 1789 653 c 0,30,31
 1789 760 1789 760 1757.5 854 c 128,-1,32
 1726 948 1726 948 1662 1028 c 0,33,34
 1558 1159 1558 1159 1408.5 1228.5 c 128,-1,35
 1259 1298 1259 1298 1083 1298 c 0,36,37
 960 1298 960 1298 847 1265.5 c 128,-1,38
 734 1233 734 1233 638 1169 c 1,39,40
 481 1067 481 1067 392.5 901.5 c 128,-1,41
 304 736 304 736 304 543 c 0,42,43
 304 384 304 384 361.5 285 c 128,-1,44
 419 186 419 186 548 50 c 1,45,46
 653 -54 653 -54 781 -93.5 c 128,-1,47
 909 -133 909 -133 1066 -133 c 0,48,49
 1195 -133 1195 -133 1319.5 -94.5 c 128,-1,50
 1444 -56 1444 -56 1548 25 c 1,51,-1
 1638 -156 l 1,52,53
 1513 -253 1513 -253 1365.5 -304.5 c 128,-1,54
 1218 -356 1218 -356 1066 -356 c 0,55,56
 881 -356 881 -356 717 -290.5 c 128,-1,57
 553 -225 553 -225 425 -100 c 256,58,59
 297 25 297 25 230 189.5 c 128,-1,60
 163 354 163 354 163 543 c 0,61,62
 163 725 163 725 231 890 c 128,-1,63
 299 1055 299 1055 425 1180 c 0,64,65
 554 1307 554 1307 723 1374.5 c 128,-1,66
 892 1442 892 1442 1081 1442 c 0,67,68
 1293 1442 1293 1442 1474.5 1355 c 128,-1,69
 1656 1268 1656 1268 1779 1108 c 0,70,71
 1854 1010 1854 1010 1893.5 895 c 128,-1,72
 1933 780 1933 780 1933 657 c 0,73,74
 1933 394 1933 394 1774 242 c 128,-1,75
 1615 90 1615 90 1335 84 c 1,76,-1
 1335 238 l 1,12,13
EndSplineSet
Validated: 1
EndChar

StartChar: A
Encoding: 65 65 36
Width: 1507
Flags: W
LayerCount: 2
Fore
SplineSet
753 1309 m 1,0,-1
 479 481 l 1,1,-1
 1028 481 l 1,2,-1
 753 1309 l 1,0,-1
659 1493 m 1,3,-1
 848 1493 l 1,4,-1
 1437 0 l 1,5,-1
 1147 0 l 1,6,-1
 1091 243 l 1,7,-1
 418 243 l 1,8,-1
 342 0 l 1,9,-1
 69 0 l 1,10,-1
 659 1493 l 1,3,-1
EndSplineSet
Validated: 1
EndChar

StartChar: B
Encoding: 66 66 37
Width: 1498
Flags: W
LayerCount: 2
Fore
SplineSet
477 713 m 1,0,-1
 477 296 l 1,1,-1
 801 296 l 2,2,3
 964 296 964 296 1042.5 343.5 c 128,-1,4
 1121 391 1121 391 1121 530 c 0,5,6
 1121 580 1121 580 1042.5 646.5 c 128,-1,7
 964 713 964 713 801 713 c 2,8,-1
 477 713 l 1,0,-1
477 1357 m 1,9,-1
 477 877 l 1,10,-1
 776 877 l 2,11,12
 924 877 924 877 996.5 932.5 c 128,-1,13
 1069 988 1069 988 1069 1102 c 0,14,15
 1069 1215 1069 1215 996.5 1286 c 128,-1,16
 924 1357 924 1357 776 1357 c 2,17,-1
 477 1357 l 1,9,-1
275 1493 m 1,18,-1
 741 1493 l 2,19,20
 972 1493 972 1493 1097 1397 c 128,-1,21
 1222 1301 1222 1301 1222 1124 c 0,22,23
 1222 987 1222 987 1158 906 c 128,-1,24
 1094 825 1094 825 970 805 c 1,25,26
 1169 773 1169 773 1261.5 671.5 c 128,-1,27
 1354 570 1354 570 1354 418 c 0,28,29
 1354 218 1354 218 1208 109 c 128,-1,30
 1062 0 1062 0 811 0 c 2,31,-1
 275 0 l 1,32,-1
 275 1493 l 1,18,-1
EndSplineSet
Validated: 1
EndChar

StartChar: C
Encoding: 67 67 38
Width: 1588
Flags: W
LayerCount: 2
Fore
SplineSet
1365 1378 m 1,0,-1
 1365 1165 l 1,1,2
 1263 1260 1263 1260 1147.5 1307 c 128,-1,3
 1032 1354 1032 1354 902 1354 c 0,4,5
 646 1354 646 1354 510 1197.5 c 128,-1,6
 374 1041 374 1041 374 745 c 1,7,8
 378 483 378 483 512 380 c 128,-1,9
 646 277 646 277 902 277 c 0,10,11
 1032 277 1032 277 1147.5 324 c 128,-1,12
 1263 371 1263 371 1365 466 c 1,13,-1
 1365 115 l 1,14,15
 1259 43 1259 43 1140.5 7 c 128,-1,16
 1022 -29 1022 -29 890 -29 c 0,17,18
 551 -29 551 -29 356 178.5 c 128,-1,19
 161 386 161 386 161 745 c 0,20,21
 161 1105 161 1105 356 1312.5 c 128,-1,22
 551 1520 551 1520 890 1520 c 0,23,24
 1024 1520 1024 1520 1142.5 1484.5 c 128,-1,25
 1261 1449 1261 1449 1365 1378 c 1,0,-1
EndSplineSet
Validated: 1
EndChar

StartChar: D
Encoding: 68 68 39
Width: 1698
Flags: W
LayerCount: 2
Fore
SplineSet
487 1327 m 1,0,-1
 487 376 l 1,1,-1
 731 376 l 2,2,3
 1040 376 1040 376 1158 457.5 c 128,-1,4
 1276 539 1276 539 1327 768 c 1,5,6
 1327 1048 1327 1048 1183.5 1187.5 c 128,-1,7
 1040 1327 1040 1327 731 1327 c 2,8,-1
 487 1327 l 1,0,-1
275 1493 m 1,9,-1
 690 1493 l 2,10,11
 1124 1493 1124 1493 1327 1312.5 c 128,-1,12
 1530 1132 1530 1132 1530 748 c 0,13,14
 1530 362 1530 362 1326 181 c 128,-1,15
 1122 0 1122 0 690 0 c 2,16,-1
 275 0 l 1,17,-1
 275 1493 l 1,9,-1
EndSplineSet
Validated: 1
EndChar

StartChar: E
Encoding: 69 69 40
Width: 1408
Flags: W
LayerCount: 2
Fore
SplineSet
275 1493 m 1,0,-1
 1219 1493 l 1,1,-1
 1219 1323 l 1,2,-1
 477 1323 l 1,3,-1
 477 881 l 1,4,-1
 1188 881 l 1,5,-1
 1188 711 l 1,6,-1
 477 711 l 1,7,-1
 477 310 l 1,8,-1
 1237 310 l 1,9,-1
 1237 0 l 1,10,-1
 275 0 l 1,11,-1
 275 1493 l 1,0,-1
EndSplineSet
Validated: 1
EndChar

StartChar: F
Encoding: 70 70 41
Width: 1108
Flags: W
LayerCount: 2
Fore
SplineSet
287 1493 m 1,0,-1
 1105 1493 l 1,1,-1
 1105 1313 l 1,2,-1
 489 1313 l 1,3,-1
 469 883 l 1,4,-1
 1051 883 l 1,5,-1
 1051 673 l 1,6,-1
 479 673 l 1,7,-1
 499 0 l 1,8,-1
 247 0 l 1,9,-1
 287 1493 l 1,0,-1
EndSplineSet
Validated: 1
EndChar

StartChar: G
Encoding: 71 71 42
Width: 1691
Flags: W
LayerCount: 2
Fore
SplineSet
1243 373 m 1,0,-1
 1243 534 l 1,1,-1
 923 534 l 1,2,-1
 923 750 l 1,3,-1
 1473 750 l 1,4,-1
 1473 139 l 1,5,6
 1356 56 1356 56 1215 13.5 c 128,-1,7
 1074 -29 1074 -29 914 -29 c 0,8,9
 564 -29 564 -29 366.5 175.5 c 128,-1,10
 169 380 169 380 169 745 c 0,11,12
 169 1111 169 1111 366.5 1315.5 c 128,-1,13
 564 1520 564 1520 914 1520 c 0,14,15
 1060 1520 1060 1520 1191.5 1484 c 128,-1,16
 1323 1448 1323 1448 1434 1378 c 1,17,-1
 1434 1183 l 1,18,19
 1322 1278 1322 1278 1196 1326 c 128,-1,20
 1070 1374 1070 1374 931 1374 c 0,21,22
 657 1374 657 1374 519.5 1221 c 128,-1,23
 382 1068 382 1068 382 765 c 1,24,25
 392 489 392 489 524.5 393 c 128,-1,26
 657 297 657 297 931 297 c 0,27,28
 1038 297 1038 297 1122 315.5 c 128,-1,29
 1206 334 1206 334 1243 373 c 1,0,-1
EndSplineSet
Validated: 1
EndChar

StartChar: H
Encoding: 72 72 43
Width: 1687
Flags: W
LayerCount: 2
Fore
SplineSet
285 1493 m 1,0,-1
 497 1493 l 1,1,-1
 497 781 l 1,2,-1
 1191 781 l 1,3,-1
 1191 1493 l 1,4,-1
 1403 1493 l 1,5,-1
 1423 0 l 1,6,-1
 1191 0 l 1,7,-1
 1191 501 l 1,8,-1
 497 501 l 1,9,-1
 497 0 l 1,10,-1
 265 0 l 1,11,-1
 285 1493 l 1,0,-1
EndSplineSet
Validated: 1
EndChar

StartChar: I
Encoding: 73 73 44
Width: 672
Flags: W
LayerCount: 2
Fore
SplineSet
235 1493 m 1,0,-1
 427 1493 l 1,1,-1
 447 0 l 1,2,-1
 205 0 l 1,3,-1
 235 1493 l 1,0,-1
EndSplineSet
Validated: 1
EndChar

StartChar: J
Encoding: 74 74 45
Width: 827
Flags: W
LayerCount: 2
Fore
SplineSet
429 1495 m 1,0,-1
 641 1481 l 1,1,-1
 587 63 l 1,2,3
 582 -207 582 -207 477.5 -317.5 c 128,-1,4
 373 -428 373 -428 136 -432 c 1,5,-1
 19 -420 l 1,6,-1
 15 -90 l 1,7,-1
 117 -112 l 1,8,9
 251 -106 251 -106 312 -47 c 128,-1,10
 373 12 373 12 375 76 c 2,11,-1
 429 1495 l 1,0,-1
EndSplineSet
Validated: 1
EndChar

StartChar: K
Encoding: 75 75 46
Width: 1600
Flags: W
LayerCount: 2
Fore
SplineSet
295 1493 m 1,0,-1
 497 1493 l 1,1,-1
 477 862 l 1,2,-1
 1147 1493 l 1,3,-1
 1407 1493 l 1,4,-1
 666 797 l 1,5,-1
 1460 0 l 1,6,-1
 984 0 l 1,7,-1
 477 719 l 1,8,-1
 517 0 l 1,9,-1
 255 0 l 1,10,-1
 295 1493 l 1,0,-1
EndSplineSet
Validated: 1
EndChar

StartChar: L
Encoding: 76 76 47
Width: 1204
Flags: W
LayerCount: 2
Fore
SplineSet
282 1493 m 1,0,-1
 484 1493 l 1,1,-1
 474 310 l 1,2,-1
 1201 310 l 1,3,-1
 1181 0 l 1,4,-1
 262 0 l 1,5,-1
 282 1493 l 1,0,-1
EndSplineSet
Validated: 1
EndChar

StartChar: M
Encoding: 77 77 48
Width: 1930
Flags: W
LayerCount: 2
Fore
SplineSet
292 1493 m 1,0,-1
 593 1493 l 1,1,-1
 964 607 l 1,2,-1
 1357 1493 l 1,3,-1
 1638 1493 l 1,4,-1
 1668 0 l 1,5,-1
 1411 0 l 1,6,-1
 1451 1311 l 1,7,-1
 1086 237 l 1,8,-1
 843 237 l 1,9,-1
 478 1311 l 1,10,-1
 518 0 l 1,11,-1
 262 0 l 1,12,-1
 292 1493 l 1,0,-1
EndSplineSet
Validated: 1
EndChar

StartChar: N
Encoding: 78 78 49
Width: 1674
Flags: W
LayerCount: 2
Fore
SplineSet
290 1463 m 1,0,-1
 542 1463 l 1,1,-1
 1184 284 l 1,2,-1
 1214 1493 l 1,3,-1
 1400 1493 l 1,4,-1
 1400 0 l 1,5,-1
 1108 0 l 1,6,-1
 446 1249 l 1,7,-1
 506 0 l 1,8,-1
 250 0 l 1,9,-1
 290 1463 l 1,0,-1
EndSplineSet
Validated: 1
EndChar

StartChar: O
Encoding: 79 79 50
Width: 1733
Flags: W
LayerCount: 2
Fore
SplineSet
868 1356 m 256,0,1
 648 1356 648 1356 518.5 1192 c 128,-1,2
 389 1028 389 1028 389 745 c 0,3,4
 389 513 389 513 518.5 434 c 128,-1,5
 648 355 648 355 868 355 c 256,6,7
 1088 355 1088 355 1216.5 434 c 128,-1,8
 1345 513 1345 513 1345 745 c 0,9,10
 1345 1028 1345 1028 1216.5 1192 c 128,-1,11
 1088 1356 1088 1356 868 1356 c 256,0,1
868 1520 m 0,12,13
 1182 1520 1182 1520 1370 1309.5 c 128,-1,14
 1558 1099 1558 1099 1558 745 c 0,15,16
 1558 392 1558 392 1370 181.5 c 128,-1,17
 1182 -29 1182 -29 868 -29 c 0,18,19
 553 -29 553 -29 364.5 181 c 128,-1,20
 176 391 176 391 176 745 c 256,21,22
 176 1099 176 1099 364.5 1309.5 c 128,-1,23
 553 1520 553 1520 868 1520 c 0,12,13
EndSplineSet
Validated: 1
EndChar

StartChar: P
Encoding: 80 80 51
Width: 1275
Flags: W
LayerCount: 2
Fore
SplineSet
511 1407 m 1,0,-1
 491 846 l 1,1,-1
 764 846 l 2,2,3
 915 846 915 846 997.5 919 c 128,-1,4
 1080 992 1080 992 1080 1127 c 0,5,6
 1080 1261 1080 1261 997.5 1334 c 128,-1,7
 915 1407 915 1407 764 1407 c 2,8,-1
 511 1407 l 1,0,-1
299 1493 m 1,9,-1
 745 1493 l 2,10,11
 996 1493 996 1493 1124.5 1379.5 c 128,-1,12
 1253 1266 1253 1266 1253 1047 c 0,13,14
 1253 826 1253 826 1124.5 703 c 128,-1,15
 996 580 996 580 745 580 c 2,16,-1
 501 580 l 1,17,-1
 481 0 l 1,18,-1
 239 0 l 1,19,-1
 299 1493 l 1,9,-1
EndSplineSet
Validated: 1
EndChar

StartChar: Q
Encoding: 81 81 52
Width: 1724
Flags: W
LayerCount: 2
Fore
SplineSet
810 1356 m 256,0,1
 590 1356 590 1356 460.5 1192 c 128,-1,2
 331 1028 331 1028 331 745 c 0,3,4
 331 513 331 513 460.5 439 c 128,-1,5
 590 365 590 365 680 355 c 1,6,-1
 774 341 l 1,7,-1
 857 480 l 1,8,9
 975 426 975 426 1099 409 c 1,10,11
 1287 513 1287 513 1287 745 c 0,12,13
 1287 1028 1287 1028 1158.5 1192 c 128,-1,14
 1030 1356 1030 1356 810 1356 c 256,0,1
1253 87 m 1,15,-1
 1569 -264 l 1,16,-1
 1095 -264 l 1,17,-1
 884 -25 l 1,18,19
 851 -27 851 -27 833.5 -28 c 128,-1,20
 816 -29 816 -29 800 -29 c 0,21,22
 495 -29 495 -29 306.5 181.5 c 128,-1,23
 118 392 118 392 118 745 c 0,24,25
 118 1099 118 1099 306.5 1309.5 c 128,-1,26
 495 1520 495 1520 810 1520 c 0,27,28
 1124 1520 1124 1520 1312 1309.5 c 128,-1,29
 1500 1099 1500 1099 1500 745 c 0,30,31
 1500 485 1500 485 1420.5 335 c 128,-1,32
 1341 185 1341 185 1253 87 c 1,15,-1
EndSplineSet
Validated: 1
EndChar

StartChar: R
Encoding: 82 82 53
Width: 1534
Flags: W
LayerCount: 2
Fore
SplineSet
983 700 m 1,0,1
 1048 678 1048 678 1109.5 606 c 128,-1,2
 1171 534 1171 534 1233 408 c 1,3,-1
 1438 0 l 1,4,-1
 1151 0 l 1,5,-1
 1000 383 l 1,6,7
 926 533 926 533 856.5 582 c 128,-1,8
 787 631 787 631 667 631 c 2,9,-1
 517 631 l 1,10,-1
 517 0 l 1,11,-1
 275 0 l 1,12,-1
 275 1493 l 1,13,-1
 731 1493 l 2,14,15
 957 1493 957 1493 1083 1386 c 128,-1,16
 1209 1279 1209 1279 1209 1063 c 0,17,18
 1209 922 1209 922 1148.5 829 c 128,-1,19
 1088 736 1088 736 983 700 c 1,0,1
497 1387 m 1,20,-1
 497 837 l 1,21,-1
 751 837 l 2,22,23
 867 837 867 837 966.5 904.5 c 128,-1,24
 1066 972 1066 972 1066 1063 c 0,25,26
 1066 1254 1066 1254 966.5 1320.5 c 128,-1,27
 867 1387 867 1387 751 1387 c 2,28,-1
 497 1387 l 1,20,-1
EndSplineSet
Validated: 1
EndChar

StartChar: S
Encoding: 83 83 54
Width: 1429
Flags: W
LayerCount: 2
Fore
SplineSet
1169 1444 m 1,0,-1
 1169 1247 l 1,1,2
 1054 1302 1054 1302 952 1329 c 128,-1,3
 850 1356 850 1356 755 1356 c 0,4,5
 590 1356 590 1356 500.5 1292 c 128,-1,6
 411 1228 411 1228 411 1110 c 0,7,8
 411 1011 411 1011 470.5 960.5 c 128,-1,9
 530 910 530 910 696 879 c 1,10,-1
 818 854 l 1,11,12
 1044 811 1044 811 1151.5 702.5 c 128,-1,13
 1259 594 1259 594 1259 412 c 0,14,15
 1259 195 1259 195 1113.5 83 c 128,-1,16
 968 -29 968 -29 687 -29 c 0,17,18
 581 -29 581 -29 461.5 -5 c 128,-1,19
 342 19 342 19 214 66 c 1,20,-1
 214 384 l 1,21,22
 337 315 337 315 455 280 c 128,-1,23
 573 245 573 245 687 245 c 0,24,25
 860 245 860 245 954 313 c 128,-1,26
 1048 381 1048 381 1048 447 c 0,27,28
 1048 507 1048 507 980.5 569 c 128,-1,29
 913 631 913 631 759 662 c 2,30,-1
 636 686 l 2,31,32
 410 731 410 731 309 827 c 128,-1,33
 208 923 208 923 208 1094 c 0,34,35
 208 1292 208 1292 347.5 1406 c 128,-1,36
 487 1520 487 1520 732 1520 c 0,37,38
 837 1520 837 1520 946 1501 c 128,-1,39
 1055 1482 1055 1482 1169 1444 c 1,0,-1
EndSplineSet
Validated: 1
EndChar

StartChar: T
Encoding: 84 84 55
Width: 1356
Flags: W
LayerCount: 2
Fore
SplineSet
47 1493 m 1,0,-1
 1310 1493 l 1,1,-1
 1310 1323 l 1,2,-1
 780 1343 l 1,3,-1
 820 0 l 1,4,-1
 537 0 l 1,5,-1
 577 1343 l 1,6,-1
 47 1323 l 1,7,-1
 47 1493 l 1,0,-1
EndSplineSet
Validated: 1
EndChar

StartChar: U
Encoding: 85 85 56
Width: 1625
Flags: W
LayerCount: 2
Fore
SplineSet
242 1493 m 1,0,-1
 445 1493 l 1,1,-1
 445 726 l 2,2,3
 445 486 445 486 532 380.5 c 128,-1,4
 619 275 619 275 814 275 c 0,5,6
 1008 275 1008 275 1095 380.5 c 128,-1,7
 1182 486 1182 486 1182 726 c 2,8,-1
 1182 1493 l 1,9,-1
 1385 1493 l 1,10,-1
 1385 561 l 2,11,12
 1385 269 1385 269 1240.5 120 c 128,-1,13
 1096 -29 1096 -29 814 -29 c 0,14,15
 531 -29 531 -29 386.5 120 c 128,-1,16
 242 269 242 269 242 561 c 2,17,-1
 242 1493 l 1,0,-1
EndSplineSet
Validated: 1
EndChar

StartChar: V
Encoding: 86 86 57
Width: 1538
Flags: W
LayerCount: 2
Fore
SplineSet
605 0 m 1,0,-1
 85 1493 l 1,1,-1
 296 1493 l 1,2,-1
 769 376 l 1,3,-1
 1243 1493 l 1,4,-1
 1453 1493 l 1,5,-1
 934 0 l 1,6,-1
 605 0 l 1,0,-1
EndSplineSet
Validated: 1
EndChar

StartChar: W
Encoding: 87 87 58
Width: 2226
Flags: W
LayerCount: 2
Fore
SplineSet
173 1493 m 1,0,-1
 367 1493 l 1,1,-1
 671 421 l 1,2,-1
 1024 1113 l 1,3,-1
 1201 1113 l 1,4,-1
 1525 401 l 1,5,-1
 1868 1493 l 1,6,-1
 2063 1493 l 1,7,-1
 1688 0 l 1,8,-1
 1394 0 l 1,9,-1
 1119 806 l 1,10,-1
 821 0 l 1,11,-1
 507 0 l 1,12,-1
 173 1493 l 1,0,-1
EndSplineSet
Validated: 1
EndChar

StartChar: X
Encoding: 88 88 59
Width: 1644
Flags: W
LayerCount: 2
Fore
SplineSet
243 1493 m 1,0,-1
 460 1493 l 1,1,-1
 831 858 l 1,2,-1
 1204 1493 l 1,3,-1
 1421 1493 l 1,4,-1
 961 696 l 1,5,-1
 1453 0 l 1,6,-1
 1126 0 l 1,7,-1
 816 535 l 1,8,-1
 503 0 l 1,9,-1
 175 0 l 1,10,-1
 688 697 l 1,11,-1
 243 1493 l 1,0,-1
EndSplineSet
Validated: 1
EndChar

StartChar: Y
Encoding: 89 89 60
Width: 1384
Flags: W
LayerCount: 2
Fore
SplineSet
64 1493 m 1,0,-1
 281 1493 l 1,1,-1
 695 729 l 1,2,-1
 1106 1493 l 1,3,-1
 1323 1493 l 1,4,-1
 825 511 l 1,5,-1
 825 0 l 1,6,-1
 552 0 l 1,7,-1
 552 511 l 1,8,-1
 64 1493 l 1,0,-1
EndSplineSet
Validated: 1
EndChar

StartChar: Z
Encoding: 90 90 61
Width: 1642
Flags: W
LayerCount: 2
Fore
SplineSet
190 1493 m 1,0,-1
 1363 1493 l 1,1,-1
 1363 1339 l 1,2,-1
 419 300 l 1,3,-1
 1386 300 l 1,4,-1
 1386 0 l 1,5,-1
 167 0 l 1,6,-1
 167 284 l 1,7,-1
 1111 1323 l 1,8,-1
 190 1323 l 1,9,-1
 190 1493 l 1,0,-1
EndSplineSet
Validated: 1
EndChar

StartChar: bracketleft
Encoding: 91 91 62
Width: 786
Flags: W
LayerCount: 2
Fore
SplineSet
275 1556 m 1,0,-1
 699 1556 l 1,1,-1
 699 1413 l 1,2,-1
 459 1413 l 1,3,-1
 459 -47 l 1,4,-1
 699 -47 l 1,5,-1
 699 -270 l 1,6,-1
 275 -270 l 1,7,-1
 275 1556 l 1,0,-1
EndSplineSet
Validated: 1
EndChar

StartChar: backslash
Encoding: 92 92 63
Width: 650
Flags: W
LayerCount: 2
Fore
SplineSet
183 1487 m 1,0,-1
 644 -214 l 1,1,-1
 434 -206 l 1,2,-1
 13 1492 l 1,3,-1
 183 1487 l 1,0,-1
EndSplineSet
Validated: 1
EndChar

StartChar: bracketright
Encoding: 93 93 64
Width: 780
Flags: W
LayerCount: 2
Fore
SplineSet
508 1556 m 1,0,-1
 508 -270 l 1,1,-1
 84 -270 l 1,2,-1
 84 -57 l 1,3,-1
 323 -57 l 1,4,-1
 323 1413 l 1,5,-1
 84 1413 l 1,6,-1
 84 1556 l 1,7,-1
 508 1556 l 1,0,-1
EndSplineSet
Validated: 1
EndChar

StartChar: asciicircum
Encoding: 94 94 65
Width: 1420
Flags: W
LayerCount: 2
Fore
SplineSet
788 1493 m 1,0,-1
 1351 936 l 1,1,-1
 1040 936 l 1,2,-1
 710 1391 l 1,3,-1
 380 936 l 1,4,-1
 69 936 l 1,5,-1
 632 1493 l 1,6,-1
 788 1493 l 1,0,-1
EndSplineSet
Validated: 1
EndChar

StartChar: underscore
Encoding: 95 95 66
Width: 1613
Flags: W
LayerCount: 2
Fore
SplineSet
1339 -304 m 1,0,-1
 1339 -483 l 1,1,-1
 275 -483 l 1,2,-1
 275 -304 l 1,3,-1
 1339 -304 l 1,0,-1
EndSplineSet
Validated: 1
EndChar

StartChar: grave
Encoding: 96 96 67
Width: 578
Flags: W
LayerCount: 2
Fore
SplineSet
266 1638 m 1,0,-1
 548 1264 l 1,1,-1
 275 1264 l 1,2,-1
 69 1638 l 1,3,-1
 266 1638 l 1,0,-1
EndSplineSet
Validated: 1
EndChar

StartChar: a
Encoding: 97 97 68
Width: 1359
Flags: W
LayerCount: 2
Fore
SplineSet
672 572 m 2,0,1
 470 572 470 572 402 526 c 128,-1,2
 334 480 334 480 333 376 c 1,3,4
 348 291 348 291 415 271 c 128,-1,5
 482 251 482 251 582 251 c 0,6,7
 721 251 721 251 779.5 301 c 128,-1,8
 838 351 838 351 838 531 c 2,9,-1
 838 572 l 1,10,-1
 672 572 l 2,0,1
1125 639 m 2,11,-1
 1125 0 l 1,12,-1
 941 0 l 1,13,-1
 941 160 l 1,14,15
 878 68 878 68 784 19.5 c 128,-1,16
 690 -29 690 -29 554 -29 c 0,17,18
 382 -29 382 -29 280.5 67.5 c 128,-1,19
 179 164 179 164 179 326 c 0,20,21
 179 515 179 515 305.5 611 c 128,-1,22
 432 707 432 707 683 707 c 2,23,-1
 941 707 l 1,24,-1
 941 725 l 2,25,26
 941 852 941 852 862.5 926.5 c 128,-1,27
 784 1001 784 1001 623 1011 c 1,28,29
 527 1011 527 1011 436 988 c 128,-1,30
 345 965 345 965 261 919 c 1,31,-1
 261 1069 l 1,32,33
 362 1108 362 1108 457 1127.5 c 128,-1,34
 552 1147 552 1147 642 1147 c 0,35,36
 885 1147 885 1147 1005 1021 c 128,-1,37
 1125 895 1125 895 1125 639 c 2,11,-1
EndSplineSet
Validated: 1
EndChar

StartChar: b
Encoding: 98 98 69
Width: 1308
Flags: W
LayerCount: 2
Fore
SplineSet
1146 601 m 1,0,1
 1140 795 1140 795 1066.5 905.5 c 128,-1,2
 993 1016 993 1016 847 1016 c 256,3,4
 701 1016 701 1016 617.5 905.5 c 128,-1,5
 534 795 534 795 534 592 c 1,6,7
 554 437 554 437 627.5 368 c 128,-1,8
 701 299 701 299 847 299 c 1,9,10
 970 308 970 308 1046 367.5 c 128,-1,11
 1122 427 1122 427 1146 601 c 1,0,1
446 950 m 1,12,13
 504 1050 504 1050 592.5 1098.5 c 128,-1,14
 681 1147 681 1147 804 1147 c 0,15,16
 1008 1147 1008 1147 1135.5 985 c 128,-1,17
 1263 823 1263 823 1263 559 c 256,18,19
 1263 295 1263 295 1135.5 133 c 128,-1,20
 1008 -29 1008 -29 804 -29 c 0,21,22
 681 -29 681 -29 592.5 19.5 c 128,-1,23
 504 68 504 68 446 168 c 1,24,-1
 446 0 l 1,25,-1
 261 0 l 1,26,-1
 281 1556 l 1,27,-1
 466 1556 l 1,28,-1
 446 950 l 1,12,13
EndSplineSet
Validated: 1
EndChar

StartChar: c
Encoding: 99 99 70
Width: 1284
Flags: W
LayerCount: 2
Fore
SplineSet
1043 1077 m 1,0,-1
 1043 915 l 1,1,2
 965 958 965 958 886.5 979.5 c 128,-1,3
 808 1001 808 1001 728 1001 c 0,4,5
 549 1001 549 1001 455 882.5 c 128,-1,6
 361 764 361 764 361 559 c 1,7,8
 375 415 375 415 458 356.5 c 128,-1,9
 541 298 541 298 720 288 c 1,10,11
 800 288 800 288 880.5 288.5 c 128,-1,12
 961 289 961 289 1039 332 c 1,13,-1
 1043 43 l 1,14,15
 966 7 966 7 883.5 -11 c 128,-1,16
 801 -29 801 -29 708 -29 c 0,17,18
 455 -29 455 -29 306 130 c 128,-1,19
 157 289 157 289 157 559 c 0,20,21
 157 833 157 833 307.5 990 c 128,-1,22
 458 1147 458 1147 720 1147 c 0,23,24
 805 1147 805 1147 886 1129.5 c 128,-1,25
 967 1112 967 1112 1043 1077 c 1,0,-1
EndSplineSet
Validated: 1
EndChar

StartChar: d
Encoding: 100 100 71
Width: 1354
Flags: HW
LayerCount: 2
Fore
SplineSet
889.844726562 950 m 1,0,-1
 909.844726562 1556 l 1,1,-1
 1093.84472656 1556 l 1,2,-1
 1073.84472656 0 l 1,3,-1
 889.844726562 0 l 1,4,-1
 889.844726562 168 l 1,5,6
 831.844726562 68 831.844726562 68 743.344726562 19.5 c 128,-1,7
 654.844726562 -29 654.844726562 -29 530.844726562 -29 c 0,8,9
 327.844726562 -29 327.844726562 -29 200.344726562 133 c 128,-1,10
 72.8447265625 295 72.8447265625 295 72.8447265625 559 c 256,11,12
 72.8447265625 823 72.8447265625 823 200.344726562 985 c 128,-1,13
 327.844726562 1147 327.844726562 1147 530.844726562 1147 c 0,14,15
 654.844726562 1147 654.844726562 1147 743.344726562 1098.5 c 128,-1,16
 831.844726562 1050 831.844726562 1050 889.844726562 950 c 1,0,-1
201.844726562 579 m 1,17,18
 224.844726562 433 224.844726562 433 294.344726562 369.5 c 128,-1,19
 363.844726562 306 363.844726562 306 509.844726562 306 c 256,20,21
 655.844726562 306 655.844726562 306 727.844726562 357 c 128,-1,22
 799.844726562 408 799.844726562 408 804.844726562 593 c 1,23,24
 799.844726562 796 799.844726562 796 730.344726562 904.5 c 128,-1,25
 660.844726562 1013 660.844726562 1013 514.844726562 1013 c 256,26,27
 368.844726562 1013 368.844726562 1013 285.344726562 897.5 c 128,-1,28
 201.844726562 782 201.844726562 782 201.844726562 579 c 1,17,18
EndSplineSet
EndChar

StartChar: e
Encoding: 101 101 72
Width: 1378
Flags: W
LayerCount: 2
Fore
SplineSet
1194 676 m 1,0,-1
 1194 606 l 1,1,-1
 358 606 l 1,2,3
 361 382 361 382 466 318 c 128,-1,4
 571 254 571 254 754 244 c 1,5,6
 860 244 860 244 960 251.5 c 128,-1,7
 1060 259 1060 259 1158 311 c 1,8,-1
 1162 57 l 1,9,10
 1062 15 1062 15 958.5 -7 c 128,-1,11
 855 -29 855 -29 747 -29 c 1,12,13
 480 -19 480 -19 323 132 c 128,-1,14
 166 283 166 283 166 549 c 1,15,16
 176 824 176 824 319.5 985.5 c 128,-1,17
 463 1147 463 1147 716 1147 c 1,18,19
 941 1137 941 1137 1058 1026.5 c 128,-1,20
 1175 916 1175 916 1194 676 c 1,0,-1
1034 767 m 1,21,22
 1018 861 1018 861 935.5 955.5 c 128,-1,23
 853 1050 853 1050 717 1050 c 0,24,25
 563 1050 563 1050 470.5 958.5 c 128,-1,26
 378 867 378 867 378 766 c 1,27,-1
 1034 767 l 1,21,22
EndSplineSet
Validated: 1
EndChar

StartChar: f
Encoding: 102 102 73
Width: 775
Flags: W
LayerCount: 2
Fore
SplineSet
712 1516 m 1,0,-1
 712 1363 l 1,1,-1
 546 1383 l 1,2,3
 477 1383 477 1383 448.5 1353 c 128,-1,4
 420 1323 420 1323 420 1219 c 1,5,-1
 430 1120 l 1,6,-1
 723 1120 l 1,7,-1
 723 937 l 1,8,-1
 430 937 l 1,9,-1
 460 0 l 1,10,-1
 195 0 l 1,11,-1
 225 937 l 1,12,-1
 59 937 l 1,13,-1
 59 1120 l 1,14,-1
 225 1120 l 1,15,-1
 235 1198 l 1,16,17
 235 1385 235 1385 327 1460.5 c 128,-1,18
 419 1536 419 1536 548 1536 c 1,19,-1
 712 1516 l 1,0,-1
EndSplineSet
Validated: 1
EndChar

StartChar: g
Encoding: 103 103 74
Width: 1413
Flags: W
LayerCount: 2
Fore
SplineSet
912 584 m 0,0,1
 912 784 912 784 829.5 894 c 128,-1,2
 747 1004 747 1004 598 1004 c 0,3,4
 450 1004 450 1004 367.5 894 c 128,-1,5
 285 784 285 784 285 584 c 1,6,7
 305 385 305 385 370.5 341.5 c 128,-1,8
 436 298 436 298 584 298 c 0,9,10
 733 298 733 298 822.5 341.5 c 128,-1,11
 912 385 912 385 912 584 c 0,0,1
1166 139 m 2,12,13
 1156 -217 1156 -217 1029 -356.5 c 128,-1,14
 902 -496 902 -496 640 -496 c 0,15,16
 543 -496 543 -496 457 -481.5 c 128,-1,17
 371 -467 371 -467 290 -437 c 1,18,-1
 290 -109 l 1,19,20
 371 -153 371 -153 450 -174 c 128,-1,21
 529 -195 529 -195 611 -195 c 0,22,23
 792 -195 792 -195 877 -94 c 128,-1,24
 962 7 962 7 982 106 c 1,25,-1
 982 167 l 1,26,27
 935 98 935 98 846 49 c 128,-1,28
 757 0 757 0 633 0 c 0,29,30
 427 0 427 0 301 157 c 128,-1,31
 175 314 175 314 175 573 c 0,32,33
 175 833 175 833 301 990 c 128,-1,34
 427 1147 427 1147 633 1147 c 0,35,36
 757 1147 757 1147 846 1098 c 128,-1,37
 935 1049 935 1049 992 950 c 1,38,-1
 1012 1120 l 1,39,-1
 1196 1120 l 1,40,-1
 1166 139 l 2,12,13
EndSplineSet
Validated: 1
EndChar

StartChar: h
Encoding: 104 104 75
Width: 1296
Flags: W
LayerCount: 2
Fore
SplineSet
1208 676 m 1,0,-1
 1228 0 l 1,1,-1
 1004 0 l 1,2,-1
 1024 670 l 1,3,4
 1024 829 1024 829 962 918 c 128,-1,5
 900 1007 900 1007 776 1007 c 0,6,7
 627 1007 627 1007 541 902 c 128,-1,8
 455 797 455 797 455 633 c 1,9,-1
 475 0 l 1,10,-1
 250 0 l 1,11,-1
 290 1556 l 1,12,-1
 475 1556 l 1,13,-1
 455 946 l 1,14,15
 521 1047 521 1047 610.5 1097 c 128,-1,16
 700 1147 700 1147 817 1147 c 0,17,18
 1010 1147 1010 1147 1109 1027.5 c 128,-1,19
 1208 908 1208 908 1208 676 c 1,0,-1
EndSplineSet
Validated: 1
EndChar

StartChar: i
Encoding: 105 105 76
Width: 644
Flags: W
LayerCount: 2
Fore
SplineSet
241 1120 m 1,0,-1
 405 1120 l 1,1,-1
 415 0 l 1,2,-1
 231 0 l 1,3,-1
 241 1120 l 1,0,-1
241 1556 m 1,4,-1
 405 1556 l 1,5,-1
 415 1323 l 1,6,-1
 231 1323 l 1,7,-1
 241 1556 l 1,4,-1
EndSplineSet
Validated: 1
EndChar

StartChar: j
Encoding: 106 106 77
Width: 652
Flags: W
LayerCount: 2
Fore
SplineSet
318 1115 m 1,0,-1
 492 1112 l 1,1,-1
 452 -28 l 1,2,3
 448 -242 448 -242 365 -331.5 c 128,-1,4
 282 -421 282 -421 101 -428 c 1,5,-1
 1 -426 l 1,6,-1
 6 -150 l 1,7,-1
 85 -151 l 1,8,9
 190 -143 190 -143 228.5 -100.5 c 128,-1,10
 267 -58 267 -58 270 95 c 1,11,-1
 318 1115 l 1,0,-1
361 1556 m 1,12,-1
 525 1556 l 1,13,-1
 535 1323 l 1,14,-1
 351 1323 l 1,15,-1
 361 1556 l 1,12,-1
EndSplineSet
Validated: 1
EndChar

StartChar: k
Encoding: 107 107 78
Width: 1275
Flags: W
LayerCount: 2
Fore
SplineSet
291 1556 m 1,0,-1
 476 1556 l 1,1,-1
 466 677 l 1,2,-1
 845 1120 l 1,3,-1
 1080 1120 l 1,4,-1
 656 596 l 1,5,-1
 1275 0 l 1,6,-1
 895 0 l 1,7,-1
 466 527 l 1,8,-1
 496 0 l 1,9,-1
 251 0 l 1,10,-1
 291 1556 l 1,0,-1
EndSplineSet
Validated: 1
EndChar

StartChar: l
Encoding: 108 108 79
Width: 625
Flags: W
LayerCount: 2
Fore
SplineSet
258 1556 m 1,0,-1
 432 1556 l 1,1,-1
 432 228 l 1,2,-1
 556 227 l 1,3,-1
 556 0 l 1,4,-1
 238 0 l 1,5,-1
 258 1556 l 1,0,-1
EndSplineSet
Validated: 1
EndChar

StartChar: m
Encoding: 109 109 80
Width: 2181
Flags: W
LayerCount: 2
Fore
SplineSet
1177 905 m 1,0,1
 1246 1029 1246 1029 1332 1088 c 128,-1,2
 1418 1147 1418 1147 1548 1147 c 0,3,4
 1723 1147 1723 1147 1818 1024.5 c 128,-1,5
 1913 902 1913 902 1913 676 c 1,6,-1
 1933 0 l 1,7,-1
 1678 0 l 1,8,-1
 1728 700 l 1,9,10
 1728 861 1728 861 1686 939 c 128,-1,11
 1644 1017 1644 1017 1527 1017 c 0,12,13
 1384 1017 1384 1017 1306 907 c 128,-1,14
 1228 797 1228 797 1228 633 c 1,15,-1
 1218 0 l 1,16,-1
 963 0 l 1,17,-1
 1033 710 l 1,18,19
 1033 872 1033 872 976 949.5 c 128,-1,20
 919 1027 919 1027 800 1027 c 0,21,22
 659 1027 659 1027 571 911.5 c 128,-1,23
 483 796 483 796 483 633 c 1,24,-1
 503 0 l 1,25,-1
 258 0 l 1,26,-1
 298 1120 l 1,27,-1
 483 1120 l 1,28,-1
 463 946 l 1,29,30
 526 1049 526 1049 614 1098 c 128,-1,31
 702 1147 702 1147 823 1147 c 0,32,33
 945 1147 945 1147 1040.5 1085 c 128,-1,34
 1136 1023 1136 1023 1177 905 c 1,0,1
EndSplineSet
Validated: 1
EndChar

StartChar: n
Encoding: 110 110 81
Width: 1480
Flags: W
LayerCount: 2
Fore
SplineSet
1233 676 m 2,0,-1
 1263 0 l 1,1,-1
 999 0 l 1,2,-1
 1039 680 l 1,3,4
 1039 839 1039 839 987 918 c 128,-1,5
 935 997 935 997 811 997 c 0,6,7
 642 997 642 997 561 902 c 128,-1,8
 480 807 480 807 480 643 c 1,9,-1
 510 0 l 1,10,-1
 255 0 l 1,11,-1
 285 1130 l 1,12,-1
 470 1130 l 1,13,-1
 470 996 l 1,14,15
 536 1047 536 1047 625.5 1097 c 128,-1,16
 715 1147 715 1147 832 1147 c 0,17,18
 1025 1147 1025 1147 1124 1027.5 c 128,-1,19
 1223 908 1223 908 1233 676 c 2,0,-1
EndSplineSet
Validated: 1
EndChar

StartChar: o
Encoding: 111 111 82
Width: 1387
Flags: W
LayerCount: 2
Fore
SplineSet
694 1011 m 0,0,1
 546 1011 546 1011 460 898.5 c 128,-1,2
 374 786 374 786 374 591 c 0,3,4
 374 395 374 395 459.5 342 c 128,-1,5
 545 289 545 289 694 289 c 0,6,7
 841 289 841 289 927 342.5 c 128,-1,8
 1013 396 1013 396 1013 591 c 0,9,10
 1013 784 1013 784 927 897.5 c 128,-1,11
 841 1011 841 1011 694 1011 c 0,0,1
694 1147 m 0,12,13
 934 1147 934 1147 1071 991 c 128,-1,14
 1208 835 1208 835 1208 559 c 0,15,16
 1208 284 1208 284 1071 127.5 c 128,-1,17
 934 -29 934 -29 694 -29 c 0,18,19
 453 -29 453 -29 316.5 127.5 c 128,-1,20
 180 284 180 284 180 559 c 0,21,22
 180 835 180 835 316.5 991 c 128,-1,23
 453 1147 453 1147 694 1147 c 0,12,13
EndSplineSet
Validated: 1
EndChar

StartChar: p
Encoding: 112 112 83
Width: 1314
Flags: W
LayerCount: 2
Fore
SplineSet
453 168 m 1,0,-1
 433 -426 l 1,1,-1
 248 -426 l 1,2,-1
 288 1120 l 1,3,-1
 473 1120 l 1,4,-1
 453 950 l 1,5,6
 511 1050 511 1050 599.5 1098.5 c 128,-1,7
 688 1147 688 1147 811 1147 c 0,8,9
 1015 1147 1015 1147 1142.5 985 c 128,-1,10
 1270 823 1270 823 1270 559 c 256,11,12
 1270 295 1270 295 1142.5 133 c 128,-1,13
 1015 -29 1015 -29 811 -29 c 0,14,15
 688 -29 688 -29 599.5 19.5 c 128,-1,16
 511 68 511 68 453 168 c 1,0,-1
1152 591 m 256,17,18
 1152 794 1152 794 1068.5 909.5 c 128,-1,19
 985 1025 985 1025 839 1025 c 256,20,21
 693 1025 693 1025 609.5 909.5 c 128,-1,22
 526 794 526 794 526 591 c 256,23,24
 526 388 526 388 614.5 331 c 128,-1,25
 703 274 703 274 849 274 c 256,26,27
 995 274 995 274 1073.5 331 c 128,-1,28
 1152 388 1152 388 1152 591 c 256,17,18
EndSplineSet
Validated: 1
EndChar

StartChar: q
Encoding: 113 113 84
Width: 1319
Flags: W
LayerCount: 2
Fore
SplineSet
171 585 m 256,0,1
 171 382 171 382 252 330 c 128,-1,2
 333 278 333 278 479 278 c 256,3,4
 625 278 625 278 711.5 330 c 128,-1,5
 798 382 798 382 798 585 c 256,6,7
 798 788 798 788 714 903.5 c 128,-1,8
 630 1019 630 1019 484 1019 c 256,9,10
 338 1019 338 1019 254.5 903.5 c 128,-1,11
 171 788 171 788 171 585 c 256,0,1
866 168 m 1,12,13
 808 68 808 68 719.5 19.5 c 128,-1,14
 631 -29 631 -29 507 -29 c 0,15,16
 304 -29 304 -29 176.5 133 c 128,-1,17
 49 295 49 295 49 559 c 256,18,19
 49 823 49 823 176.5 985 c 128,-1,20
 304 1147 304 1147 507 1147 c 0,21,22
 631 1147 631 1147 719.5 1098.5 c 128,-1,23
 808 1050 808 1050 866 950 c 1,24,-1
 886 1120 l 1,25,-1
 1070 1120 l 1,26,-1
 1030 -426 l 1,27,-1
 846 -426 l 1,28,-1
 866 168 l 1,12,13
EndSplineSet
Validated: 1
EndChar

StartChar: r
Encoding: 114 114 85
Width: 886
Flags: W
LayerCount: 2
Fore
SplineSet
870 928 m 1,0,1
 839 946 839 946 807.5 949.5 c 128,-1,2
 776 953 776 953 732 953 c 0,3,4
 576 953 576 953 507.5 846.5 c 128,-1,5
 439 740 439 740 439 560 c 1,6,-1
 459 0 l 1,7,-1
 224 0 l 1,8,-1
 274 1110 l 1,9,-1
 439 1110 l 1,10,-1
 439 996 l 1,11,12
 467 1018 467 1018 560 1072.5 c 128,-1,13
 653 1127 653 1127 786 1127 c 0,14,15
 805 1127 805 1127 823 1124.5 c 128,-1,16
 841 1122 841 1122 869 1117 c 1,17,-1
 870 928 l 1,0,1
EndSplineSet
Validated: 1
EndChar

StartChar: s
Encoding: 115 115 86
Width: 1238
Flags: W
LayerCount: 2
Fore
SplineSet
1004 1087 m 1,0,-1
 1004 933 l 1,1,2
 926 973 926 973 842 993 c 128,-1,3
 758 1013 758 1013 668 1013 c 0,4,5
 531 1013 531 1013 457.5 966 c 128,-1,6
 384 919 384 919 384 835 c 0,7,8
 384 761 384 761 438 719.5 c 128,-1,9
 492 678 492 678 640 645 c 2,10,-1
 703 631 l 1,11,12
 899 589 899 589 981.5 517.5 c 128,-1,13
 1064 446 1064 446 1064 309 c 0,14,15
 1064 153 1064 153 940.5 62 c 128,-1,16
 817 -29 817 -29 601 -29 c 0,17,18
 511 -29 511 -29 413.5 -11.5 c 128,-1,19
 316 6 316 6 208 41 c 1,20,-1
 208 311 l 1,21,22
 310 258 310 258 409 231.5 c 128,-1,23
 508 205 508 205 605 205 c 0,24,25
 735 205 735 205 795 244 c 128,-1,26
 855 283 855 283 855 355 c 1,27,28
 822 415 822 415 798 442.5 c 128,-1,29
 774 470 774 470 603 507 c 1,30,-1
 539 522 l 1,31,32
 368 558 368 558 292 622.5 c 128,-1,33
 216 687 216 687 216 817 c 0,34,35
 216 975 216 975 328 1061 c 128,-1,36
 440 1147 440 1147 646 1147 c 0,37,38
 748 1147 748 1147 838 1132 c 128,-1,39
 928 1117 928 1117 1004 1087 c 1,0,-1
EndSplineSet
Validated: 1
EndChar

StartChar: t
Encoding: 116 116 87
Width: 842
Flags: W
LayerCount: 2
Fore
SplineSet
426 1398 m 1,0,-1
 416 1120 l 1,1,-1
 675 1120 l 1,2,-1
 675 977 l 1,3,-1
 416 977 l 1,4,-1
 406 489 l 1,5,6
 406 352 406 352 443.5 313 c 128,-1,7
 481 274 481 274 596 274 c 2,8,-1
 785 274 l 1,9,-1
 785 0 l 1,10,-1
 596 0 l 2,11,12
 383 0 383 0 297 79.5 c 128,-1,13
 211 159 211 159 211 369 c 1,14,-1
 221 977 l 1,15,-1
 86 977 l 1,16,-1
 86 1120 l 1,17,-1
 221 1120 l 1,18,-1
 231 1398 l 1,19,-1
 426 1398 l 1,0,-1
EndSplineSet
Validated: 1
EndChar

StartChar: u
Encoding: 117 117 88
Width: 1451
Flags: W
LayerCount: 2
Fore
SplineSet
245 442 m 2,0,-1
 245 1120 l 1,1,-1
 399 1120 l 1,2,-1
 399 609 l 1,3,4
 409 450 409 450 466 370.5 c 128,-1,5
 523 291 523 291 647 291 c 0,6,7
 796 291 796 291 877.5 386 c 128,-1,8
 959 481 959 481 969 645 c 1,9,-1
 979 1120 l 1,10,-1
 1193 1120 l 1,11,-1
 1173 0 l 1,12,-1
 989 0 l 1,13,-1
 999 172 l 1,14,15
 932 70 932 70 843.5 20.5 c 128,-1,16
 755 -29 755 -29 638 -29 c 0,17,18
 445 -29 445 -29 345 91 c 128,-1,19
 245 211 245 211 245 442 c 2,0,-1
EndSplineSet
Validated: 1
EndChar

StartChar: v
Encoding: 118 118 89
Width: 1264
Flags: W
LayerCount: 2
Fore
SplineSet
87 1120 m 1,0,-1
 282 1120 l 1,1,-1
 632 300 l 1,2,-1
 982 1120 l 1,3,-1
 1177 1120 l 1,4,-1
 767 0 l 1,5,-1
 497 0 l 1,6,-1
 87 1120 l 1,0,-1
EndSplineSet
Validated: 1
EndChar

StartChar: w
Encoding: 119 119 90
Width: 1831
Flags: W
LayerCount: 2
Fore
SplineSet
164 1120 m 1,0,-1
 348 1120 l 1,1,-1
 578 336 l 1,2,-1
 787 750 l 1,3,-1
 1044 750 l 1,4,-1
 1254 336 l 1,5,-1
 1483 1120 l 1,6,-1
 1667 1120 l 1,7,-1
 1374 0 l 1,8,-1
 1117 0 l 1,9,-1
 916 508 l 1,10,-1
 704 0 l 1,11,-1
 457 0 l 1,12,-1
 164 1120 l 1,0,-1
EndSplineSet
Validated: 1
EndChar

StartChar: x
Encoding: 120 120 91
Width: 1491
Flags: W
LayerCount: 2
Fore
SplineSet
1264 1120 m 1,0,-1
 869 525 l 1,1,-1
 1305 0 l 1,2,-1
 1008 0 l 1,3,-1
 752 390 l 1,4,-1
 476 0 l 1,5,-1
 179 0 l 1,6,-1
 624 536 l 1,7,-1
 236 1120 l 1,8,-1
 433 1120 l 1,9,-1
 740 661 l 1,10,-1
 1077 1120 l 1,11,-1
 1264 1120 l 1,0,-1
EndSplineSet
Validated: 1
EndChar

StartChar: y
Encoding: 121 121 92
Width: 1325
Flags: W
LayerCount: 2
Fore
SplineSet
824 -104 m 1,0,1
 726 -324 726 -324 642 -385 c 128,-1,2
 558 -446 558 -446 434 -446 c 2,3,-1
 267 -446 l 1,4,-1
 267 -202 l 1,5,-1
 395 -202 l 2,6,7
 471 -202 471 -202 513 -166 c 128,-1,8
 555 -130 555 -130 606 -66 c 1,9,-1
 685 93 l 1,10,-1
 206 1120 l 1,11,-1
 401 1120 l 1,12,-1
 797 469 l 1,13,-1
 1101 1120 l 1,14,-1
 1296 1120 l 1,15,-1
 824 -104 l 1,0,1
EndSplineSet
Validated: 1
EndChar

StartChar: z
Encoding: 122 122 93
Width: 1349
Flags: W
LayerCount: 2
Fore
SplineSet
219 1120 m 1,0,-1
 1083 1120 l 1,1,-1
 1083 952 l 1,2,-1
 451 247 l 1,3,-1
 1073 247 l 1,4,-1
 1073 0 l 1,5,-1
 174 0 l 1,6,-1
 174 268 l 1,7,-1
 886 983 l 1,8,-1
 219 983 l 1,9,-1
 219 1120 l 1,0,-1
EndSplineSet
Validated: 1
EndChar

StartChar: braceleft
Encoding: 123 123 94
Width: 939
Flags: W
LayerCount: 2
Fore
SplineSet
783 -144 m 1,0,-1
 781 -348 l 1,1,-1
 719 -347 l 2,2,3
 470 -342 470 -342 391.5 -266.5 c 128,-1,4
 313 -191 313 -191 307 30 c 1,5,-1
 311 268 l 1,6,7
 304 419 304 419 256 478 c 128,-1,8
 208 537 208 537 66 540 c 2,9,-1
 5 541 l 1,10,-1
 7 684 l 1,11,-1
 68 683 l 1,12,13
 211 690 211 690 265.5 741.5 c 128,-1,14
 320 793 320 793 323 942 c 2,15,-1
 327 1182 l 2,16,17
 331 1403 331 1403 417 1470 c 128,-1,18
 503 1537 503 1537 752 1543 c 1,19,-1
 814 1542 l 1,20,-1
 811 1399 l 1,21,-1
 743 1400 l 1,22,23
 592 1393 592 1393 553.5 1354.5 c 128,-1,24
 515 1316 515 1316 512 1175 c 2,25,-1
 508 927 l 2,26,27
 505 770 505 770 458.5 700 c 128,-1,28
 412 630 412 630 301 607 c 1,29,30
 412 578 412 578 450.5 506 c 128,-1,31
 489 434 489 434 496 298 c 1,32,-1
 492 50 l 1,33,34
 500 -51 500 -51 537 -95.5 c 128,-1,35
 574 -140 574 -140 715 -143 c 2,36,-1
 783 -144 l 1,0,-1
EndSplineSet
Validated: 1
EndChar

StartChar: bar
Encoding: 124 124 95
Width: 482
Flags: W
LayerCount: 2
Fore
SplineSet
286 -483 m 1,0,-1
 96 -483 l 1,1,-1
 146 526 l 1,2,-1
 316 526 l 1,3,-1
 286 -483 l 1,0,-1
147 633 m 1,4,-1
 186 1565 l 1,5,-1
 356 1565 l 1,6,-1
 317 633 l 1,7,-1
 147 633 l 1,4,-1
EndSplineSet
Validated: 1
EndChar

StartChar: braceright
Encoding: 125 125 96
Width: 911
Flags: W
LayerCount: 2
Fore
SplineSet
117 -180 m 1,0,-1
 187 -180 l 2,1,2
 327 -180 327 -180 369.5 -137 c 128,-1,3
 412 -94 412 -94 412 49 c 2,4,-1
 412 297 l 2,5,6
 412 443 412 443 457 514 c 128,-1,7
 502 585 502 585 613 612 c 1,8,9
 502 637 502 637 457 708 c 128,-1,10
 412 779 412 779 412 936 c 2,11,-1
 412 1184 l 2,12,13
 412 1326 412 1326 369.5 1369.5 c 128,-1,14
 327 1413 327 1413 187 1413 c 2,15,-1
 117 1413 l 1,16,-1
 117 1556 l 1,17,-1
 180 1556 l 2,18,19
 429 1556 429 1556 512.5 1482.5 c 128,-1,20
 596 1409 596 1409 596 1188 c 2,21,-1
 596 948 l 2,22,23
 596 799 596 799 650 741.5 c 128,-1,24
 704 684 704 684 846 684 c 2,25,-1
 908 684 l 1,26,-1
 908 541 l 1,27,-1
 846 541 l 2,28,29
 704 541 704 541 650 483 c 128,-1,30
 596 425 596 425 596 274 c 2,31,-1
 596 35 l 2,32,33
 596 -186 596 -186 512.5 -260 c 128,-1,34
 429 -334 429 -334 180 -334 c 2,35,-1
 117 -334 l 1,36,-1
 117 -180 l 1,0,-1
EndSplineSet
Validated: 1
EndChar

StartChar: asciitilde
Encoding: 126 126 97
Width: 1641
Flags: W
LayerCount: 2
Fore
SplineSet
1478 817 m 1,0,-1
 1478 659 l 1,1,2
 1373 580 1373 580 1283.5 521 c 128,-1,3
 1194 462 1194 462 1097 462 c 0,4,5
 987 462 987 462 841 551 c 1,6,7
 830 555 830 555 825 557 c 0,8,9
 818 560 818 560 803 565 c 1,10,11
 648 647 648 647 554 647 c 0,12,13
 466 647 466 647 380 583.5 c 128,-1,14
 294 520 294 520 196 437 c 1,15,-1
 196 645 l 1,16,17
 301 724 301 724 390.5 758.5 c 128,-1,18
 480 793 480 793 577 793 c 0,19,20
 687 793 687 793 834 733 c 0,21,22
 844 729 844 729 849 727 c 0,23,24
 857 724 857 724 871 719 c 0,25,26
 1026 657 1026 657 1120 657 c 0,27,28
 1206 657 1206 657 1290.5 695 c 128,-1,29
 1375 733 1375 733 1478 817 c 1,0,-1
EndSplineSet
Validated: 1
EndChar

StartChar: Aring
Encoding: 197 197 99
Width: 1536
Flags: W
LayerCount: 2
Fore
SplineSet
920 1626 m 256,0,1
 920 1689 920 1689 875.5 1733.5 c 128,-1,2
 831 1778 831 1778 768 1778 c 0,3,4
 704 1778 704 1778 660.5 1734.5 c 128,-1,5
 617 1691 617 1691 617 1626 c 0,6,7
 617 1563 617 1563 661 1519 c 128,-1,8
 705 1475 705 1475 768 1475 c 256,9,10
 831 1475 831 1475 875.5 1519 c 128,-1,11
 920 1563 920 1563 920 1626 c 256,0,1
768 1294 m 1,12,-1
 496 551 l 1,13,-1
 1041 551 l 1,14,-1
 768 1294 l 1,12,-1
617 1397 m 1,15,16
 556 1438 556 1438 525 1495.5 c 128,-1,17
 494 1553 494 1553 494 1626 c 0,18,19
 494 1741 494 1741 573.5 1821 c 128,-1,20
 653 1901 653 1901 768 1901 c 0,21,22
 882 1901 882 1901 962.5 1820.5 c 128,-1,23
 1043 1740 1043 1740 1043 1626 c 0,24,25
 1043 1556 1043 1556 1011.5 1497 c 128,-1,26
 980 1438 980 1438 920 1397 c 1,27,-1
 1452 0 l 1,28,-1
 1242 0 l 1,29,-1
 1106 383 l 1,30,-1
 433 383 l 1,31,-1
 297 0 l 1,32,-1
 84 0 l 1,33,-1
 617 1397 l 1,15,16
EndSplineSet
Validated: 1
EndChar

StartChar: dagger
Encoding: 8224 8224 130
Width: 917
Flags: W
LayerCount: 2
Fore
SplineSet
371 1493 m 1,0,-1
 547 1493 l 1,1,-1
 547 1073 l 1,2,-1
 914 1073 l 1,3,-1
 914 920 l 1,4,-1
 547 920 l 1,5,-1
 547 -197 l 1,6,-1
 371 -197 l 1,7,-1
 371 920 l 1,8,-1
 4 920 l 1,9,-1
 4 1073 l 1,10,-1
 371 1073 l 1,11,-1
 371 1493 l 1,0,-1
EndSplineSet
Validated: 1
EndChar

StartChar: degree
Encoding: 176 176 131
Width: 965
Flags: W
LayerCount: 2
Fore
SplineSet
485 1441 m 0,0,1
 405 1441 405 1441 350 1390.5 c 128,-1,2
 295 1340 295 1340 295 1267 c 0,3,4
 295 1195 295 1195 350 1145.5 c 128,-1,5
 405 1096 405 1096 485 1096 c 256,6,7
 565 1096 565 1096 620 1145.5 c 128,-1,8
 675 1195 675 1195 675 1267 c 256,9,10
 675 1339 675 1339 619.5 1390 c 128,-1,11
 564 1441 564 1441 485 1441 c 0,0,1
485 1520 m 0,12,13
 549 1520 549 1520 608 1495.5 c 128,-1,14
 667 1471 667 1471 710 1425 c 1,15,16
 756 1380 756 1380 779 1323 c 128,-1,17
 802 1266 802 1266 802 1200 c 0,18,19
 802 1068 802 1068 709.5 976.5 c 128,-1,20
 617 885 617 885 483 885 c 0,21,22
 348 885 348 885 258 975 c 128,-1,23
 168 1065 168 1065 168 1200 c 0,24,25
 168 1334 168 1334 260 1427 c 128,-1,26
 352 1520 352 1520 485 1520 c 0,12,13
EndSplineSet
Validated: 1
EndChar

StartChar: cent
Encoding: 162 162 132
Width: 987
Flags: W
LayerCount: 2
Fore
SplineSet
539 202 m 1,0,-1
 553 1008 l 1,1,2
 406 993 406 993 322 876 c 128,-1,3
 238 759 238 759 234 555 c 0,4,5
 232 410 232 410 312.5 316 c 128,-1,6
 393 222 393 222 539 202 c 1,0,-1
935 1061 m 1,7,-1
 933 919 l 1,8,9
 860 962 860 962 792 984 c 128,-1,10
 724 1006 724 1006 656 1010 c 1,11,-1
 641 196 l 1,12,13
 711 200 711 200 780 220 c 128,-1,14
 849 240 849 240 922 277 c 1,15,-1
 917 27 l 1,16,17
 852 -1 852 -1 783 -17.5 c 128,-1,18
 714 -34 714 -34 637 -40 c 1,19,-1
 632 -324 l 1,20,-1
 530 -322 l 1,21,-1
 535 -34 l 1,22,23
 295 -10 295 -10 165 146 c 128,-1,24
 35 302 35 302 39 559 c 0,25,26
 44 817 44 817 179 967.5 c 128,-1,27
 314 1118 314 1118 556 1136 c 1,28,-1
 561 1423 l 1,29,-1
 663 1421 l 1,30,-1
 659 1134 l 1,31,32
 732 1129 732 1129 800 1111 c 128,-1,33
 868 1093 868 1093 935 1061 c 1,7,-1
EndSplineSet
Validated: 33
EndChar

StartChar: sterling
Encoding: 163 163 133
Width: 1316
Flags: W
LayerCount: 2
Fore
SplineSet
1093 1443 m 1,0,-1
 1088 1261 l 1,1,2
 1013 1303 1013 1303 945.5 1325 c 128,-1,3
 878 1347 878 1347 817 1348 c 1,4,5
 669 1340 669 1340 609 1268.5 c 128,-1,6
 549 1197 549 1197 543 985 c 2,7,-1
 537 770 l 1,8,-1
 928 763 l 1,9,-1
 925 640 l 1,10,-1
 534 647 l 1,11,-1
 522 212 l 1,12,-1
 1079 203 l 1,13,-1
 1073 -17 l 1,14,-1
 80 0 l 1,15,-1
 86 220 l 1,16,-1
 322 216 l 1,17,-1
 334 651 l 1,18,-1
 135 654 l 1,19,-1
 138 777 l 1,20,-1
 337 774 l 1,21,-1
 344 1012 l 2,22,23
 351 1273 351 1273 461 1387.5 c 128,-1,24
 571 1502 571 1502 804 1508 c 1,25,26
 864 1507 864 1507 939.5 1490 c 128,-1,27
 1015 1473 1015 1473 1093 1443 c 1,0,-1
EndSplineSet
Validated: 1
EndChar

StartChar: section
Encoding: 167 167 134
Width: 1116
Flags: W
LayerCount: 2
Fore
SplineSet
441 960 m 1,0,1
 378 914 378 914 347 869 c 128,-1,2
 316 824 316 824 316 778 c 0,3,4
 316 702 316 702 385.5 635.5 c 128,-1,5
 455 569 455 569 705 434 c 1,6,7
 768 479 768 479 799 524.5 c 128,-1,8
 830 570 830 570 830 616 c 0,9,10
 830 691 830 691 758.5 759 c 128,-1,11
 687 827 687 827 441 960 c 1,0,1
891 1462 m 1,12,-1
 891 1298 l 1,13,14
 808 1337 808 1337 736.5 1356.5 c 128,-1,15
 665 1376 665 1376 609 1376 c 0,16,17
 512 1376 512 1376 458 1336 c 128,-1,18
 404 1296 404 1296 404 1225 c 0,19,20
 404 1135 404 1135 610 1020 c 0,21,22
 636 1005 636 1005 650 997 c 0,23,24
 861 878 861 878 926.5 801 c 128,-1,25
 992 724 992 724 992 623 c 0,26,27
 992 533 992 533 946 463 c 128,-1,28
 900 393 900 393 807 340 c 1,29,30
 869 288 869 288 897.5 233.5 c 128,-1,31
 926 179 926 179 926 115 c 0,32,33
 926 -27 926 -27 824 -111 c 128,-1,34
 722 -195 722 -195 549 -195 c 0,35,36
 476 -195 476 -195 399 -180.5 c 128,-1,37
 322 -166 322 -166 234 -137 c 1,38,-1
 234 77 l 1,39,40
 321 38 321 38 395 18.5 c 128,-1,41
 469 -1 469 -1 527 -1 c 0,42,43
 629 -1 629 -1 685.5 26 c 128,-1,44
 742 53 742 53 742 129 c 0,45,46
 742 211 742 211 521 334 c 2,47,-1
 496 348 l 2,48,49
 282 468 282 468 218 544.5 c 128,-1,50
 154 621 154 621 154 723 c 0,51,52
 154 814 154 814 200.5 885.5 c 128,-1,53
 247 957 247 957 338 1006 c 1,54,55
 279 1050 279 1050 249.5 1106 c 128,-1,56
 220 1162 220 1162 220 1231 c 0,57,58
 220 1361 220 1361 320 1440.5 c 128,-1,59
 420 1520 420 1520 586 1520 c 0,60,61
 659 1520 659 1520 735.5 1505.5 c 128,-1,62
 812 1491 812 1491 891 1462 c 1,12,-1
EndSplineSet
Validated: 1
EndChar

StartChar: bullet
Encoding: 8226 8226 135
Width: 926
Flags: W
LayerCount: 2
Fore
SplineSet
166 762 m 0,0,1
 166 886 166 886 252.5 971.5 c 128,-1,2
 339 1057 339 1057 465 1057 c 0,3,4
 589 1057 589 1057 674.5 971.5 c 128,-1,5
 760 886 760 886 760 762 c 0,6,7
 760 637 760 637 674 551 c 128,-1,8
 588 465 588 465 463 465 c 256,9,10
 338 465 338 465 252 551 c 128,-1,11
 166 637 166 637 166 762 c 0,0,1
EndSplineSet
Validated: 1
EndChar

StartChar: paragraph
Encoding: 182 182 136
Width: 1419
Flags: W
LayerCount: 2
Fore
SplineSet
596 1493 m 2,0,-1
 1034 1493 l 1,1,-1
 1254 -197 l 1,2,-1
 893 -197 l 1,3,-1
 903 1370 l 1,4,-1
 713 1370 l 1,5,-1
 713 -197 l 1,6,-1
 391 -197 l 1,7,-1
 461 649 l 1,8,9
 356 666 356 666 238.5 776.5 c 128,-1,10
 121 887 121 887 121 1071 c 0,11,12
 121 1261 121 1261 251 1377 c 128,-1,13
 381 1493 381 1493 596 1493 c 2,0,-1
EndSplineSet
Validated: 1
EndChar

StartChar: germandbls
Encoding: 223 223 137
Width: 1422
Flags: W
LayerCount: 2
Fore
SplineSet
273 1137 m 1,0,1
 273 1337 273 1337 392.5 1446.5 c 128,-1,2
 512 1556 512 1556 730 1556 c 0,3,4
 938 1556 938 1556 1047.5 1440 c 128,-1,5
 1157 1324 1157 1324 1160 1100 c 1,6,7
 1009 1092 1009 1092 925 1034.5 c 128,-1,8
 841 977 841 977 841 881 c 0,9,10
 841 834 841 834 870 793.5 c 128,-1,11
 899 753 899 753 964 711 c 2,12,-1
 1021 674 l 1,13,14
 1187 568 1187 568 1235 497 c 128,-1,15
 1283 426 1283 426 1283 326 c 0,16,17
 1283 154 1283 154 1170.5 62.5 c 128,-1,18
 1058 -29 1058 -29 847 -29 c 0,19,20
 783 -29 783 -29 715 -16.5 c 128,-1,21
 647 -4 647 -4 574 20 c 1,22,-1
 574 264 l 1,23,24
 654 234 654 234 724 219.5 c 128,-1,25
 794 205 794 205 859 205 c 0,26,27
 975 205 975 205 1035 237.5 c 128,-1,28
 1095 270 1095 270 1095 331 c 0,29,30
 1095 374 1095 374 1065.5 416 c 128,-1,31
 1036 458 1036 458 935 520 c 1,32,-1
 853 575 l 1,33,34
 807 634 807 634 763.5 701.5 c 128,-1,35
 720 769 720 769 720 860 c 0,36,37
 720 987 720 987 783.5 1073 c 128,-1,38
 847 1159 847 1159 1048 1188 c 1,39,40
 970 1371 970 1371 904.5 1407 c 128,-1,41
 839 1443 839 1443 726 1443 c 0,42,43
 596 1443 596 1443 528 1373.5 c 128,-1,44
 460 1304 460 1304 440 1133 c 1,45,-1
 490 0 l 1,46,-1
 213 0 l 1,47,-1
 273 1137 l 1,0,1
EndSplineSet
Validated: 1
EndChar

StartChar: registered
Encoding: 174 174 138
Width: 1808
Flags: W
LayerCount: 2
Fore
SplineSet
904 1382 m 0,0,1
 773 1382 773 1382 660 1338.5 c 128,-1,2
 547 1295 547 1295 453 1208 c 256,3,4
 359 1121 359 1121 311 1015.5 c 128,-1,5
 263 910 263 910 263 790 c 256,6,7
 263 670 263 670 311 565.5 c 128,-1,8
 359 461 359 461 453 374 c 256,9,10
 547 287 547 287 660 243 c 128,-1,11
 773 199 773 199 904 199 c 0,12,13
 1036 199 1036 199 1149.5 243 c 128,-1,14
 1263 287 1263 287 1357 374 c 0,15,16
 1450 460 1450 460 1496.5 564.5 c 128,-1,17
 1543 669 1543 669 1543 790 c 0,18,19
 1543 912 1543 912 1496 1017 c 128,-1,20
 1449 1122 1449 1122 1357 1208 c 0,21,22
 1263 1295 1263 1295 1149.5 1338.5 c 128,-1,23
 1036 1382 1036 1382 904 1382 c 0,0,1
904 1485 m 256,24,25
 1056 1485 1056 1485 1187.5 1430 c 128,-1,26
 1319 1375 1319 1375 1428 1266 c 256,27,28
 1537 1157 1537 1157 1591 1026 c 128,-1,29
 1645 895 1645 895 1645 741 c 0,30,31
 1645 589 1645 589 1591 458.5 c 128,-1,32
 1537 328 1537 328 1428 219 c 256,33,34
 1319 110 1319 110 1187.5 55 c 128,-1,35
 1056 0 1056 0 904 0 c 256,36,37
 752 0 752 0 620.5 55 c 128,-1,38
 489 110 489 110 380 219 c 256,39,40
 271 328 271 328 217 458.5 c 128,-1,41
 163 589 163 589 163 741 c 0,42,43
 163 895 163 895 217 1026 c 128,-1,44
 271 1157 271 1157 380 1266 c 256,45,46
 489 1375 489 1375 620.5 1430 c 128,-1,47
 752 1485 752 1485 904 1485 c 256,24,25
927 1121 m 2,48,-1
 804 1121 l 1,49,-1
 804 845 l 1,50,-1
 927 845 l 2,51,52
 1037 845 1037 845 1080.5 876 c 128,-1,53
 1124 907 1124 907 1124 982 c 0,54,55
 1124 1058 1124 1058 1080 1089.5 c 128,-1,56
 1036 1121 1036 1121 927 1121 c 2,48,-1
884 1174 m 2,57,58
 1060 1174 1060 1174 1147 1114.5 c 128,-1,59
 1234 1055 1234 1055 1234 934 c 0,60,61
 1234 848 1234 848 1181.5 792 c 128,-1,62
 1129 736 1129 736 1033 719 c 1,63,64
 1057 711 1057 711 1090.5 672.5 c 128,-1,65
 1124 634 1124 634 1170 561 c 2,66,-1
 1307 338 l 1,67,-1
 1135 338 l 1,68,-1
 1006 547 l 2,69,70
 947 643 947 643 910.5 668.5 c 128,-1,71
 874 694 874 694 860 694 c 2,72,-1
 804 694 l 1,73,-1
 804 338 l 1,74,-1
 599 338 l 1,75,-1
 599 1174 l 1,76,-1
 884 1174 l 2,57,58
EndSplineSet
Validated: 1
EndChar

StartChar: copyright
Encoding: 169 169 139
Width: 1808
Flags: W
LayerCount: 2
Fore
SplineSet
904 1485 m 256,0,1
 1056 1485 1056 1485 1187.5 1430 c 128,-1,2
 1319 1375 1319 1375 1428 1266 c 256,3,4
 1537 1157 1537 1157 1591 1026 c 128,-1,5
 1645 895 1645 895 1645 741 c 0,6,7
 1645 589 1645 589 1591 458.5 c 128,-1,8
 1537 328 1537 328 1428 219 c 256,9,10
 1319 110 1319 110 1187.5 55 c 128,-1,11
 1056 0 1056 0 904 0 c 256,12,13
 752 0 752 0 620.5 55 c 128,-1,14
 489 110 489 110 380 219 c 256,15,16
 271 328 271 328 217 458.5 c 128,-1,17
 163 589 163 589 163 741 c 0,18,19
 163 895 163 895 217 1026 c 128,-1,20
 271 1157 271 1157 380 1266 c 256,21,22
 489 1375 489 1375 620.5 1430 c 128,-1,23
 752 1485 752 1485 904 1485 c 256,0,1
904 1382 m 0,24,25
 773 1382 773 1382 660 1335 c 128,-1,26
 547 1288 547 1288 453 1194 c 256,27,28
 359 1100 359 1100 311 985.5 c 128,-1,29
 263 871 263 871 263 741 c 0,30,31
 263 612 263 612 311 508.5 c 128,-1,32
 359 405 359 405 453 321 c 1,33,34
 547 257 547 257 660 219.5 c 128,-1,35
 773 182 773 182 904 182 c 0,36,37
 1036 182 1036 182 1149.5 219.5 c 128,-1,38
 1263 257 1263 257 1357 321 c 1,39,40
 1450 394 1450 394 1496.5 502 c 128,-1,41
 1543 610 1543 610 1543 741 c 0,42,43
 1543 874 1543 874 1496 987.5 c 128,-1,44
 1449 1101 1449 1101 1357 1194 c 0,45,46
 1263 1288 1263 1288 1149.5 1335 c 128,-1,47
 1036 1382 1036 1382 904 1382 c 0,24,25
1203 1137 m 1,48,-1
 1203 1038 l 1,49,50
 1137 1071 1137 1071 1072 1087 c 128,-1,51
 1007 1103 1007 1103 941 1103 c 0,52,53
 792 1103 792 1103 708.5 1000.5 c 128,-1,54
 625 898 625 898 625 741 c 0,55,56
 625 642 625 642 710.5 555 c 128,-1,57
 796 468 796 468 951 468 c 0,58,59
 1015 468 1015 468 1076 483.5 c 128,-1,60
 1137 499 1137 499 1203 533 c 1,61,-1
 1203 346 l 1,62,63
 1136 317 1136 317 1067.5 303 c 128,-1,64
 999 289 999 289 929 289 c 0,65,66
 713 289 713 289 587.5 411 c 128,-1,67
 462 533 462 533 462 741 c 0,68,69
 462 950 462 950 587.5 1071 c 128,-1,70
 713 1192 713 1192 929 1192 c 0,71,72
 1002 1192 1002 1192 1070 1178 c 128,-1,73
 1138 1164 1138 1164 1203 1137 c 1,48,-1
EndSplineSet
Validated: 1
EndChar

StartChar: trademark
Encoding: 8482 8482 140
Width: 1804
Flags: W
LayerCount: 2
Fore
SplineSet
1011 1493 m 1,0,-1
 1175 1167 l 1,1,-1
 1349 1493 l 1,2,-1
 1519 1493 l 1,3,-1
 1539 915 l 1,4,-1
 1366 915 l 1,5,-1
 1396 1399 l 1,6,-1
 1221 966 l 1,7,-1
 1126 966 l 1,8,-1
 943 1399 l 1,9,-1
 973 915 l 1,10,-1
 799 915 l 1,11,-1
 839 1493 l 1,12,-1
 1011 1493 l 1,0,-1
716 1493 m 1,13,-1
 716 1399 l 1,14,-1
 513 1399 l 1,15,-1
 543 915 l 1,16,-1
 369 915 l 1,17,-1
 399 1399 l 1,18,-1
 198 1399 l 1,19,-1
 198 1493 l 1,20,-1
 716 1493 l 1,13,-1
EndSplineSet
Validated: 1
EndChar

StartChar: acute
Encoding: 180 180 141
Width: 576
Flags: W
LayerCount: 2
Fore
SplineSet
343 1638 m 1,0,-1
 564 1638 l 1,1,-1
 201 1220 l 1,2,-1
 31 1220 l 1,3,-1
 343 1638 l 1,0,-1
EndSplineSet
Validated: 1
EndChar

StartChar: dieresis
Encoding: 168 168 142
Width: 1185
Flags: W
LayerCount: 2
Fore
SplineSet
694 1567 m 1,0,-1
 912 1567 l 1,1,-1
 912 1350 l 1,2,-1
 694 1350 l 1,3,-1
 694 1567 l 1,0,-1
275 1567 m 1,4,-1
 493 1567 l 1,5,-1
 493 1350 l 1,6,-1
 275 1350 l 1,7,-1
 275 1567 l 1,4,-1
EndSplineSet
Validated: 1
EndChar

StartChar: notequal
Encoding: 8800 8800 143
Width: 1326
Flags: W
LayerCount: 2
Fore
SplineSet
23 930 m 1,0,-1
 795 930 l 1,1,-1
 1051 1245 l 1,2,-1
 1176 1143 l 1,3,-1
 1002 930 l 1,4,-1
 1305 930 l 1,5,-1
 1305 762 l 1,6,-1
 865 762 l 1,7,-1
 670 522 l 1,8,-1
 1305 522 l 1,9,-1
 1305 352 l 1,10,-1
 531 352 l 1,11,-1
 273 39 l 1,12,-1
 148 141 l 1,13,-1
 322 352 l 1,14,-1
 23 352 l 1,15,-1
 23 522 l 1,16,-1
 461 522 l 1,17,-1
 656 762 l 1,18,-1
 23 762 l 1,19,-1
 23 930 l 1,0,-1
EndSplineSet
Validated: 1
EndChar

StartChar: AE
Encoding: 198 198 144
Width: 2173
Flags: W
LayerCount: 2
Fore
SplineSet
1940 1493 m 1,0,-1
 1940 1323 l 1,1,-1
 1199 1323 l 1,2,-1
 1199 711 l 1,3,-1
 1910 711 l 1,4,-1
 1910 541 l 1,5,-1
 1199 541 l 1,6,-1
 1199 260 l 1,7,-1
 1959 260 l 1,8,-1
 1959 0 l 1,9,-1
 996 0 l 1,10,-1
 996 263 l 1,11,-1
 468 263 l 1,12,-1
 478 0 l 1,13,-1
 103 0 l 1,14,-1
 728 1493 l 1,15,-1
 1940 1493 l 1,0,-1
867 1335 m 1,16,-1
 537 431 l 1,17,-1
 996 431 l 1,18,-1
 996 1335 l 1,19,-1
 867 1335 l 1,16,-1
EndSplineSet
Validated: 1
EndChar

StartChar: Oslash
Encoding: 216 216 145
Width: 1770
Flags: W
LayerCount: 2
Fore
SplineSet
1286 1112 m 1,0,-1
 619 333 l 1,1,2
 681 289 681 289 741.5 285.5 c 128,-1,3
 802 282 802 282 897 282 c 1,4,5
 1117 312 1117 312 1220.5 416.5 c 128,-1,6
 1324 521 1324 521 1364 804 c 1,7,8
 1364 916 1364 916 1344.5 978.5 c 128,-1,9
 1325 1041 1325 1041 1286 1112 c 1,0,-1
1204 1225 m 1,10,11
 1143 1319 1143 1319 1062.5 1352.5 c 128,-1,12
 982 1386 982 1386 857 1396 c 1,13,14
 637 1396 637 1396 507.5 1232 c 128,-1,15
 378 1068 378 1068 378 785 c 0,16,17
 378 673 378 673 422.5 589 c 128,-1,18
 467 505 467 505 526 437 c 1,19,-1
 1204 1225 l 1,10,11
352 219 m 1,20,21
 274 321 274 321 234.5 453 c 128,-1,22
 195 585 195 585 195 745 c 0,23,24
 195 1099 195 1099 383.5 1309.5 c 128,-1,25
 572 1520 572 1520 887 1520 c 0,26,27
 1017 1520 1017 1520 1127.5 1481.5 c 128,-1,28
 1238 1443 1238 1443 1325 1368 c 1,29,-1
 1487 1559 l 1,30,-1
 1589 1470 l 1,31,-1
 1419 1272 l 1,32,33
 1497 1169 1497 1169 1537 1036 c 128,-1,34
 1577 903 1577 903 1577 745 c 0,35,36
 1577 392 1577 392 1389 181.5 c 128,-1,37
 1201 -29 1201 -29 887 -29 c 0,38,39
 759 -29 759 -29 648.5 8.5 c 128,-1,40
 538 46 538 46 447 121 c 1,41,-1
 285 -70 l 1,42,-1
 182 18 l 1,43,-1
 352 219 l 1,20,21
EndSplineSet
Validated: 1
EndChar

StartChar: infinity
Encoding: 8734 8734 146
Width: 1703
Flags: W
LayerCount: 2
Fore
SplineSet
913 649 m 1,0,1
 962 561 962 561 1029 516 c 128,-1,2
 1096 471 1096 471 1180 471 c 0,3,4
 1281 471 1281 471 1345 538.5 c 128,-1,5
 1409 606 1409 606 1409 711 c 0,6,7
 1409 812 1409 812 1350 879 c 128,-1,8
 1291 946 1291 946 1202 946 c 0,9,10
 1120 946 1120 946 1053.5 878.5 c 128,-1,11
 987 811 987 811 913 649 c 1,0,1
791 646 m 1,12,13
 742 734 742 734 675.5 823 c 128,-1,14
 609 912 609 912 524 912 c 0,15,16
 422 912 422 912 358.5 846 c 128,-1,17
 295 780 295 780 295 674 c 0,18,19
 295 573 295 573 354 506 c 128,-1,20
 413 439 413 439 502 439 c 0,21,22
 584 439 584 439 651 462 c 128,-1,23
 718 485 718 485 791 646 c 1,12,13
862 483 m 1,24,25
 792 348 792 348 713.5 284.5 c 128,-1,26
 635 221 635 221 541 221 c 0,27,28
 405 221 405 221 312 332.5 c 128,-1,29
 219 444 219 444 219 610 c 0,30,31
 219 785 219 785 302.5 893 c 128,-1,32
 386 1001 386 1001 520 1001 c 0,33,34
 615 1001 615 1001 691.5 938 c 128,-1,35
 768 875 768 875 840 737 c 1,36,37
 908 875 908 875 987 940.5 c 128,-1,38
 1066 1006 1066 1006 1163 1006 c 0,39,40
 1297 1006 1297 1006 1391 893.5 c 128,-1,41
 1485 781 1485 781 1485 614 c 0,42,43
 1485 439 1485 439 1401.5 332 c 128,-1,44
 1318 225 1318 225 1184 225 c 0,45,46
 1090 225 1090 225 1015.5 284.5 c 128,-1,47
 941 344 941 344 862 483 c 1,24,25
EndSplineSet
Validated: 1
EndChar

StartChar: plusminus
Encoding: 177 177 147
Width: 1419
Flags: W
LayerCount: 2
Fore
SplineSet
793 1284 m 1,0,-1
 793 897 l 1,1,-1
 1350 897 l 1,2,-1
 1350 727 l 1,3,-1
 793 727 l 1,4,-1
 793 340 l 1,5,-1
 625 340 l 1,6,-1
 625 727 l 1,7,-1
 68 727 l 1,8,-1
 68 897 l 1,9,-1
 625 897 l 1,10,-1
 625 1284 l 1,11,-1
 793 1284 l 1,0,-1
68 190 m 1,12,-1
 1350 190 l 1,13,-1
 1350 0 l 1,14,-1
 68 0 l 1,15,-1
 68 190 l 1,12,-1
EndSplineSet
Validated: 1
EndChar

StartChar: lessequal
Encoding: 8804 8804 148
Width: 1557
Flags: W
LayerCount: 2
Fore
SplineSet
1326 1016 m 1,0,-1
 366 739 l 1,1,-1
 1326 465 l 1,2,-1
 1326 287 l 1,3,-1
 44 655 l 1,4,-1
 44 825 l 1,5,-1
 1326 1192 l 1,6,-1
 1326 1016 l 1,0,-1
44 170 m 1,7,-1
 1326 170 l 1,8,-1
 1326 0 l 1,9,-1
 44 0 l 1,10,-1
 44 170 l 1,7,-1
EndSplineSet
Validated: 1
EndChar

StartChar: greaterequal
Encoding: 8805 8805 149
Width: 1558
Flags: W
LayerCount: 2
Fore
SplineSet
233 1016 m 1,0,-1
 233 1192 l 1,1,-1
 1515 825 l 1,2,-1
 1515 655 l 1,3,-1
 233 287 l 1,4,-1
 233 465 l 1,5,-1
 1194 739 l 1,6,-1
 233 1016 l 1,0,-1
1515 170 m 1,7,-1
 1515 0 l 1,8,-1
 233 0 l 1,9,-1
 233 170 l 1,10,-1
 1515 170 l 1,7,-1
EndSplineSet
Validated: 1
EndChar

StartChar: yen
Encoding: 165 165 150
Width: 1329
Flags: W
LayerCount: 2
Fore
SplineSet
1189 415 m 1,0,-1
 776 415 l 1,1,-1
 796 0 l 1,2,-1
 535 0 l 1,3,-1
 565 415 l 1,4,-1
 149 415 l 1,5,-1
 149 578 l 1,6,-1
 565 578 l 1,7,-1
 565 629 l 1,8,-1
 461 784 l 1,9,-1
 129 784 l 1,10,-1
 129 907 l 1,11,-1
 393 907 l 1,12,-1
 86 1493 l 1,13,-1
 296 1493 l 1,14,-1
 665 793 l 1,15,-1
 1032 1493 l 1,16,-1
 1243 1493 l 1,17,-1
 925 907 l 1,18,-1
 1189 907 l 1,19,-1
 1189 784 l 1,20,-1
 858 784 l 1,21,-1
 774 629 l 1,22,-1
 774 578 l 1,23,-1
 1189 578 l 1,24,-1
 1189 415 l 1,0,-1
EndSplineSet
Validated: 1
EndChar

StartChar: mu
Encoding: 181 181 151
Width: 1419
Flags: W
LayerCount: 2
Fore
SplineSet
284 -426 m 1,0,-1
 264 1120 l 1,1,-1
 448 1130 l 1,2,-1
 458 634 l 1,3,4
 458 489 458 489 527 415 c 128,-1,5
 596 341 596 341 731 341 c 0,6,7
 879 341 879 341 953.5 425 c 128,-1,8
 1028 509 1028 509 1028 677 c 1,9,-1
 1038 1120 l 1,10,-1
 1222 1120 l 1,11,-1
 1212 258 l 2,12,13
 1212 198 1212 198 1324 191 c 0,14,15
 1333 191 1333 191 1349 196.5 c 128,-1,16
 1365 202 1365 202 1393 214 c 1,17,-1
 1393 66 l 1,18,19
 1352 43 1352 43 1295.5 7 c 128,-1,20
 1239 -29 1239 -29 1204 -29 c 0,21,22
 1135 -29 1135 -29 1094 10 c 128,-1,23
 1053 49 1053 49 1038 129 c 1,24,25
 988 50 988 50 915.5 10.5 c 128,-1,26
 843 -29 843 -29 745 -29 c 0,27,28
 643 -29 643 -29 571.5 10 c 128,-1,29
 500 49 500 49 458 127 c 1,30,-1
 468 -426 l 1,31,-1
 284 -426 l 1,0,-1
EndSplineSet
Validated: 1
EndChar

StartChar: partialdiff
Encoding: 8706 8706 152
Width: 1127
Flags: W
LayerCount: 2
Fore
SplineSet
758 621 m 1,0,1
 773 708 773 708 780.5 789.5 c 128,-1,2
 788 871 788 871 788 946 c 0,3,4
 788 1075 788 1075 751.5 1140.5 c 128,-1,5
 715 1206 715 1206 643 1206 c 1,6,7
 458 1196 458 1196 441 1158 c 128,-1,8
 424 1120 424 1120 388 1120 c 256,9,10
 352 1120 352 1120 338 1127 c 128,-1,11
 324 1134 324 1134 324 1165 c 0,12,13
 324 1227 324 1227 396 1276 c 128,-1,14
 468 1325 468 1325 569 1325 c 0,15,16
 749 1325 749 1325 856 1170 c 128,-1,17
 963 1015 963 1015 963 752 c 0,18,19
 963 417 963 417 818.5 196 c 128,-1,20
 674 -25 674 -25 461 -25 c 0,21,22
 309 -25 309 -25 207.5 83 c 128,-1,23
 106 191 106 191 106 354 c 0,24,25
 106 552 106 552 216.5 680.5 c 128,-1,26
 327 809 327 809 489 809 c 0,27,28
 590 809 590 809 655 763.5 c 128,-1,29
 720 718 720 718 758 621 c 1,0,1
670 538 m 0,30,31
 670 637 670 637 622 690.5 c 128,-1,32
 574 744 574 744 486 744 c 0,33,34
 366 744 366 744 288 633.5 c 128,-1,35
 210 523 210 523 210 346 c 0,36,37
 210 246 210 246 257.5 193.5 c 128,-1,38
 305 141 305 141 394 141 c 0,39,40
 514 141 514 141 592 252.5 c 128,-1,41
 670 364 670 364 670 538 c 0,30,31
EndSplineSet
Validated: 1
EndChar

StartChar: summation
Encoding: 8721 8721 153
Width: 1646
Flags: W
LayerCount: 2
Fore
SplineSet
264 1473 m 1,0,-1
 1522 1473 l 1,1,-1
 1522 1320 l 1,2,-1
 563 1320 l 1,3,-1
 1435 563 l 1,4,-1
 541 -121 l 1,5,-1
 1548 -121 l 1,6,-1
 1548 -393 l 1,7,-1
 234 -393 l 1,8,-1
 234 -164 l 1,9,-1
 1159 557 l 1,10,-1
 264 1336 l 1,11,-1
 264 1473 l 1,0,-1
EndSplineSet
Validated: 1
EndChar

StartChar: product
Encoding: 8719 8719 154
Width: 1786
Flags: W
LayerCount: 2
Fore
SplineSet
275 1473 m 1,0,-1
 1512 1473 l 1,1,-1
 1512 -393 l 1,2,-1
 1272 -393 l 1,3,-1
 1272 1268 l 1,4,-1
 514 1268 l 1,5,-1
 514 -393 l 1,6,-1
 275 -393 l 1,7,-1
 275 1473 l 1,0,-1
EndSplineSet
Validated: 1
EndChar

StartChar: pi
Encoding: 960 960 155
Width: 1536
Flags: W
LayerCount: 2
Fore
SplineSet
1333 923 m 1,0,-1
 1151 923 l 1,1,-1
 1046 426 l 2,2,3
 1031 352 1031 352 1023.5 306 c 128,-1,4
 1016 260 1016 260 1016 238 c 0,5,6
 1016 180 1016 180 1039.5 155.5 c 128,-1,7
 1063 131 1063 131 1118 131 c 0,8,9
 1135 131 1135 131 1158 133.5 c 128,-1,10
 1181 136 1181 136 1218 141 c 1,11,-1
 1188 -70 l 1,12,13
 1158 -78 1158 -78 1130.5 -82 c 128,-1,14
 1103 -86 1103 -86 1077 -86 c 0,15,16
 959 -86 959 -86 873.5 0 c 128,-1,17
 788 86 788 86 788 186 c 0,18,19
 788 232 788 232 798.5 304 c 128,-1,20
 809 376 809 376 863 537 c 1,21,-1
 973 923 l 1,22,-1
 647 923 l 1,23,-1
 483 0 l 1,24,-1
 192 0 l 1,25,-1
 467 923 l 1,26,-1
 426 923 l 2,27,28
 372 923 372 923 342 891 c 128,-1,29
 312 859 312 859 303 780 c 1,30,-1
 143 780 l 1,31,32
 171 946 171 946 242.5 1008.5 c 128,-1,33
 314 1071 314 1071 479 1071 c 2,34,-1
 1368 1071 l 1,35,-1
 1333 923 l 1,0,-1
EndSplineSet
Validated: 1
EndChar

StartChar: integral
Encoding: 8747 8747 156
Width: 1006
Flags: W
LayerCount: 2
Fore
SplineSet
282 -262 m 0,0,1
 388 -262 388 -262 402 426 c 0,2,3
 404 534 404 534 405 591 c 0,4,5
 417 1106 417 1106 512 1328 c 128,-1,6
 607 1550 607 1550 809 1550 c 0,7,8
 889 1550 889 1550 939 1508 c 128,-1,9
 989 1466 989 1466 989 1401 c 0,10,11
 989 1347 989 1347 957 1315.5 c 128,-1,12
 925 1284 925 1284 870 1284 c 0,13,14
 828 1284 828 1284 800 1303 c 128,-1,15
 772 1322 772 1322 760 1357 c 0,16,17
 754 1372 754 1372 749.5 1408 c 128,-1,18
 745 1444 745 1444 729 1444 c 0,19,20
 622 1444 622 1444 608 825 c 0,21,22
 604 632 604 632 600 522 c 0,23,24
 583 43 583 43 488.5 -164 c 128,-1,25
 394 -371 394 -371 198 -371 c 0,26,27
 119 -371 119 -371 68.5 -329.5 c 128,-1,28
 18 -288 18 -288 18 -223 c 0,29,30
 18 -167 18 -167 52 -135.5 c 128,-1,31
 86 -104 86 -104 147 -104 c 0,32,33
 180 -104 180 -104 204 -118.5 c 128,-1,34
 228 -133 228 -133 243 -161 c 0,35,36
 253 -179 253 -179 258 -220.5 c 128,-1,37
 263 -262 263 -262 282 -262 c 0,0,1
EndSplineSet
Validated: 1
EndChar

StartChar: ordfeminine
Encoding: 170 170 157
Width: 1077
Flags: W
LayerCount: 2
Fore
SplineSet
181 592 m 1,0,-1
 869 592 l 1,1,-1
 869 469 l 1,2,-1
 181 469 l 1,3,-1
 181 592 l 1,0,-1
867 1165 m 2,4,-1
 867 717 l 1,5,-1
 718 717 l 1,6,-1
 718 829 l 1,7,8
 674 766 674 766 602 732 c 128,-1,9
 530 698 530 698 437 698 c 0,10,11
 309 698 309 698 233 765.5 c 128,-1,12
 157 833 157 833 157 946 c 0,13,14
 157 1081 157 1081 252.5 1150 c 128,-1,15
 348 1219 348 1219 536 1219 c 2,16,-1
 718 1219 l 1,17,-1
 718 1223 l 2,18,19
 718 1314 718 1314 659.5 1359.5 c 128,-1,20
 601 1405 601 1405 484 1405 c 0,21,22
 422 1405 422 1405 354 1388 c 128,-1,23
 286 1371 286 1371 218 1337 c 1,24,-1
 218 1464 l 1,25,26
 291 1492 291 1492 363.5 1506 c 128,-1,27
 436 1520 436 1520 505 1520 c 0,28,29
 688 1520 688 1520 777.5 1432 c 128,-1,30
 867 1344 867 1344 867 1165 c 2,4,-1
581 1169 m 2,31,32
 420 1169 420 1169 357 1135.5 c 128,-1,33
 294 1102 294 1102 294 1023 c 0,34,35
 294 959 294 959 343 920.5 c 128,-1,36
 392 882 392 882 474 882 c 0,37,38
 578 882 578 882 643 954 c 128,-1,39
 708 1026 708 1026 708 1140 c 2,40,-1
 708 1169 l 1,41,-1
 581 1169 l 2,31,32
EndSplineSet
Validated: 1
EndChar

StartChar: ordmasculine
Encoding: 186 186 158
Width: 1088
Flags: W
LayerCount: 2
Fore
SplineSet
200 592 m 1,0,-1
 888 592 l 1,1,-1
 888 469 l 1,2,-1
 200 469 l 1,3,-1
 200 592 l 1,0,-1
544 1520 m 256,4,5
 723 1520 723 1520 826 1409.5 c 128,-1,6
 929 1299 929 1299 929 1108 c 256,7,8
 929 917 929 917 826 807.5 c 128,-1,9
 723 698 723 698 544 698 c 256,10,11
 365 698 365 698 261 808 c 128,-1,12
 157 918 157 918 157 1108 c 0,13,14
 157 1299 157 1299 261 1409.5 c 128,-1,15
 365 1520 365 1520 544 1520 c 256,4,5
544 1442 m 0,16,17
 439 1442 439 1442 376 1374 c 128,-1,18
 313 1306 313 1306 313 1191 c 0,19,20
 313 1078 313 1078 376.5 1010.5 c 128,-1,21
 440 943 440 943 544 943 c 0,22,23
 649 943 649 943 711.5 1010.5 c 128,-1,24
 774 1078 774 1078 774 1191 c 0,25,26
 774 1307 774 1307 712 1374.5 c 128,-1,27
 650 1442 650 1442 544 1442 c 0,16,17
EndSplineSet
Validated: 1
EndChar

StartChar: Omega
Encoding: 8486 8486 159
Width: 1812
Flags: W
LayerCount: 2
Fore
SplineSet
1611 238 m 1,0,-1
 1611 0 l 1,1,-1
 1011 0 l 1,2,-1
 1011 238 l 1,3,4
 1188 295 1188 295 1287 451 c 128,-1,5
 1386 607 1386 607 1386 809 c 0,6,7
 1386 1099 1386 1099 1254 1244 c 128,-1,8
 1122 1389 1122 1389 906 1389 c 256,9,10
 690 1389 690 1389 557.5 1243.5 c 128,-1,11
 425 1098 425 1098 425 809 c 0,12,13
 425 607 425 607 524.5 451 c 128,-1,14
 624 295 624 295 802 238 c 1,15,-1
 802 0 l 1,16,-1
 202 0 l 1,17,-1
 202 238 l 1,18,-1
 521 238 l 1,19,20
 363 377 363 377 290.5 496 c 128,-1,21
 218 615 218 615 218 799 c 0,22,23
 218 1117 218 1117 409.5 1314 c 128,-1,24
 601 1511 601 1511 906 1511 c 0,25,26
 1209 1511 1209 1511 1401.5 1314.5 c 128,-1,27
 1594 1118 1594 1118 1594 809 c 0,28,29
 1594 615 1594 615 1523 497 c 128,-1,30
 1452 379 1452 379 1291 238 c 1,31,-1
 1611 238 l 1,0,-1
EndSplineSet
Validated: 1
EndChar

StartChar: ae
Encoding: 230 230 160
Width: 2218
Flags: W
LayerCount: 2
Fore
SplineSet
1819 720 m 1,0,1
 1818 829 1818 829 1735.5 937 c 128,-1,2
 1653 1045 1653 1045 1516 1045 c 0,3,4
 1363 1045 1363 1045 1270.5 940.5 c 128,-1,5
 1178 836 1178 836 1164 719 c 1,6,-1
 1819 720 l 1,0,1
1096 963 m 1,7,8
 1170 1053 1170 1053 1276 1100 c 128,-1,9
 1382 1147 1382 1147 1514 1147 c 0,10,11
 1740 1147 1740 1147 1872 1001.5 c 128,-1,12
 2004 856 2004 856 2004 666 c 2,13,-1
 2004 576 l 1,14,-1
 1158 576 l 1,15,16
 1170 445 1170 445 1272 345 c 128,-1,17
 1374 245 1374 245 1557 245 c 0,18,19
 1661 245 1661 245 1761 271.5 c 128,-1,20
 1861 298 1861 298 1961 351 c 1,21,-1
 1961 87 l 1,22,23
 1861 45 1861 45 1757 8 c 128,-1,24
 1653 -29 1653 -29 1547 -29 c 0,25,26
 1380 -29 1380 -29 1256 31.5 c 128,-1,27
 1132 92 1132 92 1055 211 c 1,28,29
 982 91 982 91 874 31 c 128,-1,30
 766 -29 766 -29 623 -29 c 0,31,32
 434 -29 434 -29 329 64.5 c 128,-1,33
 224 158 224 158 224 326 c 0,34,35
 224 575 224 575 350.5 671 c 128,-1,36
 477 767 477 767 728 767 c 2,37,-1
 986 767 l 1,38,-1
 986 785 l 2,39,40
 986 852 986 852 902.5 941.5 c 128,-1,41
 819 1031 819 1031 668 1031 c 0,42,43
 572 1031 572 1031 481 1008 c 128,-1,44
 390 985 390 985 306 939 c 1,45,-1
 306 1069 l 1,46,47
 407 1108 407 1108 502 1127.5 c 128,-1,48
 597 1147 597 1147 687 1147 c 0,49,50
 829 1147 829 1147 935.5 1099 c 128,-1,51
 1042 1051 1042 1051 1096 963 c 1,7,8
803 623 m 2,52,53
 580 623 580 623 494 582 c 128,-1,54
 408 541 408 541 408 395 c 0,55,56
 408 317 408 317 472.5 271 c 128,-1,57
 537 225 537 225 648 225 c 0,58,59
 801 225 801 225 893.5 311.5 c 128,-1,60
 986 398 986 398 986 590 c 2,61,-1
 986 623 l 1,62,-1
 803 623 l 2,52,53
EndSplineSet
Validated: 1
EndChar

StartChar: oslash
Encoding: 248 248 161
Width: 1410
Flags: W
LayerCount: 2
Fore
SplineSet
983 801 m 1,0,-1
 496 209 l 1,1,2
 537 167 537 167 588.5 147 c 128,-1,3
 640 127 640 127 705 127 c 0,4,5
 852 127 852 127 938 243 c 128,-1,6
 1024 359 1024 359 1024 559 c 0,7,8
 1024 638 1024 638 1014 696.5 c 128,-1,9
 1004 755 1004 755 983 801 c 1,0,-1
912 909 m 1,10,11
 870 950 870 950 818.5 970.5 c 128,-1,12
 767 991 767 991 705 991 c 0,13,14
 554 991 554 991 469.5 873.5 c 128,-1,15
 385 756 385 756 385 545 c 0,16,17
 385 473 385 473 394.5 418 c 128,-1,18
 404 363 404 363 424 317 c 1,19,-1
 912 909 l 1,10,11
299 166 m 1,20,21
 245 243 245 243 218 341.5 c 128,-1,22
 191 440 191 440 191 559 c 0,23,24
 191 835 191 835 327.5 991 c 128,-1,25
 464 1147 464 1147 705 1147 c 0,26,27
 798 1147 798 1147 877.5 1121.5 c 128,-1,28
 957 1096 957 1096 1024 1044 c 1,29,-1
 1163 1212 l 1,30,-1
 1258 1133 l 1,31,-1
 1112 954 l 1,32,33
 1165 877 1165 877 1192 778 c 128,-1,34
 1219 679 1219 679 1219 559 c 0,35,36
 1219 284 1219 284 1082 127.5 c 128,-1,37
 945 -29 945 -29 705 -29 c 0,38,39
 609 -29 609 -29 528.5 -3 c 128,-1,40
 448 23 448 23 385 74 c 1,41,-1
 246 -94 l 1,42,-1
 150 -16 l 1,43,-1
 299 166 l 1,20,21
EndSplineSet
Validated: 1
EndChar

StartChar: questiondown
Encoding: 191 191 162
Width: 948
Flags: W
LayerCount: 2
Fore
SplineSet
412 1092 m 1,0,-1
 572 1092 l 1,1,-1
 572 936 l 2,2,3
 572 835 572 835 549.5 795 c 128,-1,4
 527 755 527 755 457 678 c 1,5,-1
 367 590 l 1,6,7
 309 537 309 537 283.5 490 c 128,-1,8
 258 443 258 443 258 394 c 0,9,10
 258 305 258 305 323.5 250 c 128,-1,11
 389 195 389 195 498 195 c 0,12,13
 576 195 576 195 666 230 c 128,-1,14
 756 265 756 265 852 332 c 1,15,-1
 852 84 l 1,16,17
 758 27 758 27 662 -1 c 128,-1,18
 566 -29 566 -29 463 -29 c 0,19,20
 279 -29 279 -29 167 68 c 128,-1,21
 55 165 55 165 55 324 c 0,22,23
 55 400 55 400 91.5 468.5 c 128,-1,24
 128 537 128 537 217 623 c 2,25,-1
 305 709 l 2,26,27
 353 756 353 756 372 782.5 c 128,-1,28
 391 809 391 809 399 834 c 0,29,30
 406 855 406 855 409 885 c 128,-1,31
 412 915 412 915 412 969 c 2,32,-1
 412 1092 l 1,0,-1
608 1239 m 1,33,-1
 406 1239 l 1,34,-1
 406 1493 l 1,35,-1
 608 1493 l 1,36,-1
 608 1239 l 1,33,-1
EndSplineSet
Validated: 1
EndChar

StartChar: exclamdown
Encoding: 161 161 163
Width: 768
Flags: W
LayerCount: 2
Fore
SplineSet
508 1219 m 1,0,-1
 265 1219 l 1,1,-1
 265 1493 l 1,2,-1
 508 1493 l 1,3,-1
 508 1219 l 1,0,-1
518 0 m 1,4,-1
 255 0 l 1,5,-1
 265 655 l 1,6,-1
 286 1012 l 1,7,-1
 488 1012 l 1,8,-1
 508 655 l 1,9,-1
 518 0 l 1,4,-1
EndSplineSet
Validated: 1
EndChar

StartChar: logicalnot
Encoding: 172 172 164
Width: 1577
Flags: W
LayerCount: 2
Fore
SplineSet
4 862 m 1,0,-1
 1286 862 l 1,1,-1
 1316 287 l 1,2,-1
 1068 287 l 1,3,-1
 1118 692 l 1,4,-1
 4 672 l 1,5,-1
 4 862 l 1,0,-1
EndSplineSet
Validated: 1
EndChar

StartChar: radical
Encoding: 8730 8730 165
Width: 1265
Flags: W
LayerCount: 2
Fore
SplineSet
1055 1661 m 1,0,-1
 1244 1661 l 1,1,-1
 1244 1565 l 1,2,-1
 1129 1565 l 1,3,-1
 535 -41 l 1,4,-1
 469 -41 l 1,5,-1
 150 842 l 1,6,-1
 25 797 l 1,7,-1
 0 877 l 1,8,-1
 283 975 l 1,9,-1
 539 266 l 1,10,-1
 1055 1661 l 1,0,-1
EndSplineSet
Validated: 1
EndChar

StartChar: florin
Encoding: 402 402 166
Width: 1281
Flags: W
LayerCount: 2
Fore
SplineSet
1271 1520 m 1,0,-1
 1271 1376 l 1,1,2
 1233 1405 1233 1405 1193 1419 c 128,-1,3
 1153 1433 1153 1433 1109 1433 c 0,4,5
 1013 1433 1013 1433 956 1372 c 128,-1,6
 899 1311 899 1311 874 1179 c 1,7,-1
 814 848 l 1,8,-1
 1101 868 l 1,9,-1
 1101 725 l 1,10,-1
 784 705 l 1,11,-1
 717 220 l 1,12,13
 669 -145 669 -145 540 -285.5 c 128,-1,14
 411 -426 411 -426 225 -426 c 0,15,16
 167 -426 167 -426 117 -415.5 c 128,-1,17
 67 -405 67 -405 20 -383 c 1,18,-1
 80 -67 l 1,19,20
 132 -100 132 -100 180.5 -116.5 c 128,-1,21
 229 -133 229 -133 276 -133 c 0,22,23
 373 -133 373 -133 427.5 -64.5 c 128,-1,24
 482 4 482 4 516 170 c 1,25,-1
 593 705 l 1,26,-1
 345 685 l 1,27,-1
 345 828 l 1,28,-1
 624 848 l 1,29,-1
 687 1178 l 1,30,31
 723 1361 723 1361 822 1458.5 c 128,-1,32
 921 1556 921 1556 1072 1556 c 0,33,34
 1125 1556 1125 1556 1175 1547 c 128,-1,35
 1225 1538 1225 1538 1271 1520 c 1,0,-1
EndSplineSet
Validated: 1
EndChar

StartChar: approxequal
Encoding: 8776 8776 167
Width: 1713
Flags: W
LayerCount: 2
Fore
SplineSet
1499 623 m 1,0,-1
 1499 444 l 1,1,2
 1394 366 1394 366 1304.5 331.5 c 128,-1,3
 1215 297 1215 297 1118 297 c 0,4,5
 1008 297 1008 297 862 356 c 0,6,7
 852 360 852 360 845 363 c 0,8,9
 839 365 839 365 824 371 c 0,10,11
 669 442 669 442 575 442 c 0,12,13
 487 442 487 442 401 404 c 128,-1,14
 315 366 315 366 217 282 c 1,15,-1
 217 461 l 1,16,17
 322 539 322 539 411.5 573.5 c 128,-1,18
 501 608 501 608 598 608 c 1,19,20
 708 598 708 598 855 539 c 0,21,22
 866 534 866 534 871 532 c 0,23,24
 877 530 877 530 892 524 c 0,25,26
 1047 463 1047 463 1141 463 c 0,27,28
 1227 463 1227 463 1311.5 500.5 c 128,-1,29
 1396 538 1396 538 1499 623 c 1,0,-1
1499 1012 m 1,30,-1
 1499 834 l 1,31,32
 1394 755 1394 755 1304.5 720.5 c 128,-1,33
 1215 686 1215 686 1118 686 c 0,34,35
 1008 686 1008 686 862 745 c 0,36,37
 852 749 852 749 845 752 c 0,38,39
 839 754 839 754 824 760 c 0,40,41
 669 831 669 831 575 831 c 0,42,43
 487 831 487 831 401 793 c 128,-1,44
 315 755 315 755 217 672 c 1,45,-1
 217 850 l 1,46,47
 322 928 322 928 411.5 962.5 c 128,-1,48
 501 997 501 997 598 997 c 1,49,50
 708 987 708 987 855 928 c 0,51,52
 865 924 865 924 870 922 c 0,53,54
 877 919 877 919 892 913 c 0,55,56
 1047 852 1047 852 1141 852 c 0,57,58
 1227 852 1227 852 1311.5 889.5 c 128,-1,59
 1396 927 1396 927 1499 1012 c 1,30,-1
EndSplineSet
Validated: 1
EndChar

StartChar: Delta
Encoding: 8710 8710 168
Width: 1528
Flags: W
LayerCount: 2
Fore
SplineSet
763 1382 m 1,0,-1
 345 298 l 1,1,-1
 1181 298 l 1,2,-1
 763 1382 l 1,0,-1
652 1473 m 1,3,-1
 876 1473 l 1,4,-1
 1455 0 l 1,5,-1
 73 0 l 1,6,-1
 652 1473 l 1,3,-1
EndSplineSet
Validated: 1
EndChar

StartChar: guillemotleft
Encoding: 171 171 169
Width: 1240
Flags: W
LayerCount: 2
Fore
SplineSet
1013 1026 m 1,0,-1
 1007 835 l 1,1,-1
 696 577 l 1,2,-1
 988 299 l 1,3,-1
 940 70 l 1,4,-1
 486 504 l 1,5,-1
 530 624 l 1,6,-1
 1013 1026 l 1,0,-1
580 1041 m 1,7,-1
 573 850 l 1,8,-1
 263 593 l 1,9,-1
 554 314 l 1,10,-1
 506 85 l 1,11,-1
 52 519 l 1,12,-1
 96 639 l 1,13,-1
 580 1041 l 1,7,-1
EndSplineSet
Validated: 1
EndChar

StartChar: guillemotright
Encoding: 187 187 170
Width: 1223
Flags: W
LayerCount: 2
Fore
SplineSet
259 1083 m 1,0,-1
 706 641 l 1,1,-1
 739 517 l 1,2,-1
 249 124 l 1,3,-1
 221 357 l 1,4,-1
 536 609 l 1,5,-1
 249 892 l 1,6,-1
 259 1083 l 1,0,-1
692 1060 m 1,7,-1
 1139 618 l 1,8,-1
 1172 494 l 1,9,-1
 682 101 l 1,10,-1
 654 334 l 1,11,-1
 969 586 l 1,12,-1
 682 869 l 1,13,-1
 692 1060 l 1,7,-1
EndSplineSet
Validated: 1
EndChar

StartChar: ellipsis
Encoding: 8230 8230 171
Width: 2235
Flags: W
LayerCount: 2
Fore
SplineSet
957 364 m 1,0,-1
 1279 364 l 1,1,-1
 1279 0 l 1,2,-1
 957 0 l 1,3,-1
 957 364 l 1,0,-1
1638 364 m 1,4,-1
 1961 364 l 1,5,-1
 1961 0 l 1,6,-1
 1638 0 l 1,7,-1
 1638 364 l 1,4,-1
275 364 m 1,8,-1
 598 364 l 1,9,-1
 598 0 l 1,10,-1
 275 0 l 1,11,-1
 275 364 l 1,8,-1
EndSplineSet
Validated: 1
EndChar

StartChar: OE
Encoding: 338 338 176
Width: 2334
Flags: W
LayerCount: 2
Fore
SplineSet
2121 1493 m 1,0,-1
 2121 1363 l 1,1,-1
 1379 1363 l 1,2,-1
 1379 951 l 1,3,-1
 2110 951 l 1,4,-1
 2110 781 l 1,5,-1
 1379 781 l 1,6,-1
 1379 280 l 1,7,-1
 2139 280 l 1,8,-1
 2139 0 l 1,9,-1
 1074 0 l 2,10,11
 641 0 641 0 417.5 190 c 128,-1,12
 194 380 194 380 194 748 c 0,13,14
 194 1113 194 1113 417.5 1303 c 128,-1,15
 641 1493 641 1493 1074 1493 c 2,16,-1
 2121 1493 l 1,0,-1
1177 1363 m 1,17,-1
 1048 1363 l 2,18,19
 727 1363 727 1363 567 1219.5 c 128,-1,20
 407 1076 407 1076 407 748 c 0,21,22
 407 569 407 569 567 424.5 c 128,-1,23
 727 280 727 280 1048 280 c 2,24,-1
 1177 280 l 1,25,-1
 1177 1363 l 1,17,-1
EndSplineSet
Validated: 1
EndChar

StartChar: oe
Encoding: 339 339 177
Width: 2306
Flags: W
LayerCount: 2
Fore
SplineSet
1909 800 m 1,0,1
 1907 862 1907 862 1825 951.5 c 128,-1,2
 1743 1041 1743 1041 1606 1041 c 0,3,4
 1453 1041 1453 1041 1360.5 954 c 128,-1,5
 1268 867 1268 867 1254 799 c 1,6,-1
 1909 800 l 1,0,1
2094 756 m 2,7,-1
 2094 666 l 1,8,-1
 1248 666 l 1,9,10
 1260 326 1260 326 1362 256.5 c 128,-1,11
 1464 187 1464 187 1647 187 c 0,12,13
 1753 187 1753 187 1853 213 c 128,-1,14
 1953 239 1953 239 2051 291 c 1,15,-1
 2051 57 l 1,16,17
 1951 15 1951 15 1847 -7 c 128,-1,18
 1743 -29 1743 -29 1637 -29 c 0,19,20
 1477 -29 1477 -29 1356 26 c 128,-1,21
 1235 81 1235 81 1154 190 c 1,22,23
 1083 80 1083 80 978.5 25.5 c 128,-1,24
 874 -29 874 -29 734 -29 c 0,25,26
 493 -29 493 -29 356.5 127.5 c 128,-1,27
 220 284 220 284 220 559 c 0,28,29
 220 835 220 835 356.5 991 c 128,-1,30
 493 1147 493 1147 734 1147 c 0,31,32
 874 1147 874 1147 979.5 1091.5 c 128,-1,33
 1085 1036 1085 1036 1151 928 c 1,34,35
 1229 1035 1229 1035 1345 1091 c 128,-1,36
 1461 1147 1461 1147 1604 1147 c 0,37,38
 1830 1147 1830 1147 1962 1001.5 c 128,-1,39
 2094 856 2094 856 2094 756 c 2,7,-1
734 1021 m 0,40,41
 586 1021 586 1021 500 914.5 c 128,-1,42
 414 808 414 808 414 623 c 256,43,44
 414 438 414 438 499.5 331.5 c 128,-1,45
 585 225 585 225 734 225 c 0,46,47
 881 225 881 225 967 332 c 128,-1,48
 1053 439 1053 439 1053 623 c 0,49,50
 1053 806 1053 806 967 913.5 c 128,-1,51
 881 1021 881 1021 734 1021 c 0,40,41
EndSplineSet
Validated: 1
EndChar

StartChar: endash
Encoding: 8211 8211 178
Width: 1573
Flags: W
LayerCount: 2
Fore
SplineSet
275 633 m 1,0,-1
 1299 633 l 1,1,-1
 1299 489 l 1,2,-1
 275 489 l 1,3,-1
 275 633 l 1,0,-1
EndSplineSet
Validated: 1
EndChar

StartChar: emdash
Encoding: 8212 8212 179
Width: 2597
Flags: W
LayerCount: 2
Fore
SplineSet
275 633 m 1,0,-1
 2323 633 l 1,1,-1
 2323 489 l 1,2,-1
 275 489 l 1,3,-1
 275 633 l 1,0,-1
EndSplineSet
Validated: 1
EndChar

StartChar: quotedblleft
Encoding: 8220 8220 180
Width: 1257
Flags: W
LayerCount: 2
Fore
SplineSet
449 881 m 1,0,-1
 187 881 l 1,1,-1
 187 1096 l 1,2,-1
 391 1493 l 1,3,-1
 551 1493 l 1,4,-1
 449 1096 l 1,5,-1
 449 881 l 1,0,-1
959 881 m 1,6,-1
 697 881 l 1,7,-1
 697 1096 l 1,8,-1
 901 1493 l 1,9,-1
 1061 1493 l 1,10,-1
 959 1096 l 1,11,-1
 959 881 l 1,6,-1
EndSplineSet
Validated: 1
EndChar

StartChar: quotedblright
Encoding: 8221 8221 181
Width: 1200
Flags: W
LayerCount: 2
Fore
SplineSet
293 1493 m 1,0,-1
 539 1493 l 1,1,-1
 539 1293 l 1,2,-1
 348 921 l 1,3,-1
 198 921 l 1,4,-1
 293 1293 l 1,5,-1
 293 1493 l 1,0,-1
770 1493 m 1,6,-1
 1015 1493 l 1,7,-1
 1015 1293 l 1,8,-1
 824 921 l 1,9,-1
 674 921 l 1,10,-1
 770 1293 l 1,11,-1
 770 1493 l 1,6,-1
EndSplineSet
Validated: 1
EndChar

StartChar: quoteleft
Encoding: 8216 8216 182
Width: 562
Flags: W
LayerCount: 2
Fore
SplineSet
354 914 m 1,0,-1
 94 914 l 1,1,-1
 94 1126 l 1,2,-1
 295 1519 l 1,3,-1
 454 1519 l 1,4,-1
 354 1126 l 1,5,-1
 354 914 l 1,0,-1
EndSplineSet
Validated: 1
EndChar

StartChar: quoteright
Encoding: 8217 8217 183
Width: 551
Flags: W
LayerCount: 2
Fore
SplineSet
211 1510 m 1,0,-1
 467 1510 l 1,1,-1
 467 1325 l 1,2,-1
 268 939 l 1,3,-1
 112 939 l 1,4,-1
 211 1325 l 1,5,-1
 211 1510 l 1,0,-1
EndSplineSet
Validated: 1
EndChar

StartChar: divide
Encoding: 247 247 184
Width: 1364
Flags: W
LayerCount: 2
Fore
SplineSet
534 1185 m 1,0,-1
 830 1185 l 1,1,-1
 830 889 l 1,2,-1
 534 889 l 1,3,-1
 534 1185 l 1,0,-1
534 345 m 1,4,-1
 830 345 l 1,5,-1
 830 50 l 1,6,-1
 534 50 l 1,7,-1
 534 345 l 1,4,-1
16 727 m 1,8,-1
 1348 727 l 1,9,-1
 1348 507 l 1,10,-1
 16 507 l 1,11,-1
 16 727 l 1,8,-1
EndSplineSet
Validated: 1
EndChar

StartChar: lozenge
Encoding: 9674 9674 185
Width: 1092
Flags: W
LayerCount: 2
Fore
SplineSet
546 1409 m 1,0,-1
 161 592 l 1,1,-1
 546 27 l 1,2,-1
 931 592 l 1,3,-1
 546 1409 l 1,0,-1
546 1653 m 1,4,-1
 1046 592 l 1,5,-1
 546 -477 l 1,6,-1
 46 592 l 1,7,-1
 546 1653 l 1,4,-1
EndSplineSet
Validated: 1
EndChar

StartChar: fraction
Encoding: 8260 8260 188
Width: 1092
Flags: W
LayerCount: 2
Fore
SplineSet
932 1520 m 1,0,-1
 1092 1520 l 1,1,-1
 160 -29 l 1,2,-1
 0 -29 l 1,3,-1
 932 1520 l 1,0,-1
EndSplineSet
Validated: 1
EndChar

StartChar: currency
Encoding: 164 164 189
Width: 1552
Flags: W
LayerCount: 2
Fore
SplineSet
1016 993 m 1,0,-1
 1223 1202 l 1,1,-1
 1337 1087 l 1,2,-1
 1131 881 l 1,3,4
 1168 822 1168 822 1186 762.5 c 128,-1,5
 1204 703 1204 703 1204 641 c 0,6,7
 1204 578 1204 578 1185 520.5 c 128,-1,8
 1166 463 1166 463 1126 406 c 1,9,-1
 1335 199 l 1,10,-1
 1221 86 l 1,11,-1
 1014 293 l 1,12,13
 955 253 955 253 897 234 c 128,-1,14
 839 215 839 215 778 215 c 0,15,16
 720 215 720 215 660 233.5 c 128,-1,17
 600 252 600 252 539 289 c 1,18,-1
 332 82 l 1,19,-1
 219 197 l 1,20,-1
 426 403 l 1,21,22
 389 465 389 465 370.5 524 c 128,-1,23
 352 583 352 583 352 641 c 0,24,25
 352 705 352 705 371 763 c 128,-1,26
 390 821 390 821 428 877 c 1,27,-1
 221 1083 l 1,28,-1
 336 1198 l 1,29,-1
 543 991 l 1,30,31
 598 1030 598 1030 656 1048.5 c 128,-1,32
 714 1067 714 1067 778 1067 c 0,33,34
 838 1067 838 1067 896.5 1049 c 128,-1,35
 955 1031 955 1031 1016 993 c 1,0,-1
1047 643 m 0,36,37
 1047 755 1047 755 969.5 832 c 128,-1,38
 892 909 892 909 778 909 c 0,39,40
 666 909 666 909 587 832 c 128,-1,41
 508 755 508 755 508 643 c 0,42,43
 508 529 508 529 586.5 451 c 128,-1,44
 665 373 665 373 778 373 c 256,45,46
 891 373 891 373 969 451.5 c 128,-1,47
 1047 530 1047 530 1047 643 c 0,36,37
EndSplineSet
Validated: 1
EndChar

StartChar: guilsinglleft
Encoding: 8249 8249 190
Width: 736
Flags: W
LayerCount: 2
Fore
SplineSet
469 1059 m 1,0,-1
 469 868 l 1,1,-1
 168 600 l 1,2,-1
 469 332 l 1,3,-1
 469 141 l 1,4,-1
 0 559 l 1,5,-1
 0 641 l 1,6,-1
 469 1059 l 1,0,-1
EndSplineSet
Validated: 1
EndChar

StartChar: guilsinglright
Encoding: 8250 8250 191
Width: 744
Flags: W
LayerCount: 2
Fore
SplineSet
275 1059 m 1,0,-1
 744 641 l 1,1,-1
 744 559 l 1,2,-1
 275 141 l 1,3,-1
 275 332 l 1,4,-1
 576 600 l 1,5,-1
 275 868 l 1,6,-1
 275 1059 l 1,0,-1
EndSplineSet
Validated: 1
EndChar

StartChar: fi
Encoding: 64257 64257 192
Width: 1441
Flags: W
LayerCount: 2
Fore
SplineSet
1167 1120 m 1,0,-1
 1197 0 l 1,1,-1
 962 0 l 1,2,-1
 982 987 l 1,3,-1
 477 987 l 1,4,-1
 507 0 l 1,5,-1
 262 0 l 1,6,-1
 282 987 l 1,7,-1
 106 987 l 1,8,-1
 106 1120 l 1,9,-1
 282 1120 l 1,10,-1
 282 1198 l 2,11,12
 282 1381 282 1381 373.5 1468.5 c 128,-1,13
 465 1556 465 1556 644 1586 c 1,14,-1
 829 1606 l 1,15,-1
 829 1453 l 1,16,-1
 653 1413 l 1,17,18
 554 1413 554 1413 515.5 1358 c 128,-1,19
 477 1303 477 1303 477 1219 c 2,20,-1
 477 1120 l 1,21,-1
 1167 1120 l 1,0,-1
982 1554 m 1,22,-1
 1167 1554 l 1,23,-1
 1167 1321 l 1,24,-1
 982 1321 l 1,25,-1
 982 1554 l 1,22,-1
EndSplineSet
Validated: 1
EndChar

StartChar: fl
Encoding: 64258 64258 193
Width: 1500
Flags: W
LayerCount: 2
Fore
SplineSet
667 1556 m 2,0,-1
 1179 1556 l 1,1,-1
 1179 208 l 1,2,-1
 1289 210 l 1,3,-1
 1290 0 l 1,4,-1
 994 0 l 1,5,-1
 994 1423 l 1,6,-1
 665 1423 l 2,7,8
 566 1423 566 1423 527.5 1383 c 128,-1,9
 489 1343 489 1343 489 1239 c 1,10,-1
 499 1120 l 1,11,-1
 792 1120 l 1,12,-1
 792 977 l 1,13,-1
 499 977 l 1,14,-1
 559 0 l 1,15,-1
 264 0 l 1,16,-1
 294 977 l 1,17,-1
 128 977 l 1,18,-1
 128 1120 l 1,19,-1
 294 1120 l 1,20,-1
 304 1198 l 1,21,22
 304 1385 304 1385 391 1470.5 c 128,-1,23
 478 1556 478 1556 667 1556 c 2,0,-1
EndSplineSet
Validated: 1
EndChar

StartChar: daggerdbl
Encoding: 8225 8225 194
Width: 959
Flags: W
LayerCount: 2
Fore
SplineSet
935 153 m 1,0,-1
 608 153 l 1,1,-1
 628 -197 l 1,2,-1
 332 -197 l 1,3,-1
 352 153 l 1,4,-1
 25 153 l 1,5,-1
 25 377 l 1,6,-1
 372 377 l 1,7,-1
 392 920 l 1,8,-1
 25 920 l 1,9,-1
 25 1073 l 1,10,-1
 392 1073 l 1,11,-1
 392 1493 l 1,12,-1
 568 1493 l 1,13,-1
 568 1073 l 1,14,-1
 935 1073 l 1,15,-1
 935 920 l 1,16,-1
 568 920 l 1,17,-1
 588 377 l 1,18,-1
 935 377 l 1,19,-1
 935 153 l 1,0,-1
EndSplineSet
Validated: 1
EndChar

StartChar: periodcentered
Encoding: 183 183 195
Width: 755
Flags: W
LayerCount: 2
Fore
SplineSet
275 838 m 1,0,-1
 486 838 l 1,1,-1
 486 584 l 1,2,-1
 275 584 l 1,3,-1
 275 838 l 1,0,-1
EndSplineSet
Validated: 1
EndChar

StartChar: quotesinglbase
Encoding: 8218 8218 196
Width: 494
Flags: W
LayerCount: 2
Fore
SplineSet
193 254 m 1,0,-1
 404 254 l 1,1,-1
 404 82 l 1,2,-1
 240 -238 l 1,3,-1
 111 -238 l 1,4,-1
 193 82 l 1,5,-1
 193 254 l 1,0,-1
EndSplineSet
Validated: 1
EndChar

StartChar: quotedblbase
Encoding: 8222 8222 197
Width: 1266
Flags: W
LayerCount: 2
Fore
SplineSet
816 380 m 1,0,-1
 1081 380 l 1,1,-1
 1081 164 l 1,2,-1
 875 -238 l 1,3,-1
 713 -238 l 1,4,-1
 816 164 l 1,5,-1
 816 380 l 1,0,-1
301 380 m 1,6,-1
 566 380 l 1,7,-1
 566 164 l 1,8,-1
 360 -238 l 1,9,-1
 198 -238 l 1,10,-1
 301 164 l 1,11,-1
 301 380 l 1,6,-1
EndSplineSet
Validated: 1
EndChar

StartChar: perthousand
Encoding: 8240 8240 198
Width: 2805
Flags: W
LayerCount: 2
Fore
SplineSet
2378 657 m 0,0,1
 2291 657 2291 657 2241 604 c 128,-1,2
 2191 551 2191 551 2191 457 c 0,3,4
 2191 364 2191 364 2241 310.5 c 128,-1,5
 2291 257 2291 257 2378 257 c 0,6,7
 2463 257 2463 257 2512.5 310.5 c 128,-1,8
 2562 364 2562 364 2562 457 c 256,9,10
 2562 550 2562 550 2512.5 603.5 c 128,-1,11
 2463 657 2463 657 2378 657 c 0,0,1
2378 784 m 0,12,13
 2536 784 2536 784 2629 674 c 128,-1,14
 2722 564 2722 564 2722 377 c 256,15,16
 2722 190 2722 190 2628.5 80.5 c 128,-1,17
 2535 -29 2535 -29 2378 -29 c 0,18,19
 2218 -29 2218 -29 2125 80.5 c 128,-1,20
 2032 190 2032 190 2032 377 c 0,21,22
 2032 565 2032 565 2125.5 674.5 c 128,-1,23
 2219 784 2219 784 2378 784 c 0,12,13
543 1520 m 256,24,25
 701 1520 701 1520 795 1410.5 c 128,-1,26
 889 1301 889 1301 889 1114 c 0,27,28
 889 925 889 925 795.5 816 c 128,-1,29
 702 707 702 707 543 707 c 256,30,31
 384 707 384 707 291.5 816.5 c 128,-1,32
 199 926 199 926 199 1114 c 0,33,34
 199 1300 199 1300 292 1410 c 128,-1,35
 385 1520 385 1520 543 1520 c 256,24,25
1446 1520 m 1,36,-1
 1606 1520 l 1,37,-1
 672 -29 l 1,38,-1
 442 -29 l 1,39,-1
 1446 1520 l 1,36,-1
543 1393 m 256,40,41
 457 1393 457 1393 407.5 1335 c 128,-1,42
 358 1277 358 1277 358 1175 c 0,43,44
 358 1072 358 1072 407 1014.5 c 128,-1,45
 456 957 456 957 543 957 c 256,46,47
 630 957 630 957 679.5 1014.5 c 128,-1,48
 729 1072 729 1072 729 1175 c 0,49,50
 729 1276 729 1276 679 1334.5 c 128,-1,51
 629 1393 629 1393 543 1393 c 256,40,41
1575 784 m 0,52,53
 1733 784 1733 784 1826 674 c 128,-1,54
 1919 564 1919 564 1919 377 c 256,55,56
 1919 190 1919 190 1825.5 80.5 c 128,-1,57
 1732 -29 1732 -29 1575 -29 c 0,58,59
 1415 -29 1415 -29 1322 80.5 c 128,-1,60
 1229 190 1229 190 1229 377 c 0,61,62
 1229 565 1229 565 1322.5 674.5 c 128,-1,63
 1416 784 1416 784 1575 784 c 0,52,53
1575 657 m 0,64,65
 1488 657 1488 657 1438.5 604 c 128,-1,66
 1389 551 1389 551 1389 457 c 0,67,68
 1389 364 1389 364 1438.5 310.5 c 128,-1,69
 1488 257 1488 257 1575 257 c 0,70,71
 1660 257 1660 257 1709.5 310.5 c 128,-1,72
 1759 364 1759 364 1759 457 c 256,73,74
 1759 550 1759 550 1709.5 603.5 c 128,-1,75
 1660 657 1660 657 1575 657 c 0,64,65
EndSplineSet
Validated: 1
EndChar

StartChar: dotlessi
Encoding: 305 305 214
Width: 727
Flags: W
LayerCount: 2
Fore
SplineSet
275 1120 m 1,0,-1
 459 1120 l 1,1,-1
 459 0 l 1,2,-1
 275 0 l 1,3,-1
 275 1120 l 1,0,-1
EndSplineSet
Validated: 1
EndChar

StartChar: circumflex
Encoding: 710 710 215
Width: 813
Flags: W
LayerCount: 2
Fore
SplineSet
333 1638 m 1,0,-1
 481 1638 l 1,1,-1
 726 1262 l 1,2,-1
 587 1262 l 1,3,-1
 407 1507 l 1,4,-1
 227 1262 l 1,5,-1
 88 1262 l 1,6,-1
 333 1638 l 1,0,-1
EndSplineSet
Validated: 1
EndChar

StartChar: tilde
Encoding: 732 732 216
Width: 1083
Flags: W
LayerCount: 2
Fore
SplineSet
540 1370 m 1,0,-1
 483 1425 l 2,1,2
 461 1445 461 1445 444.5 1454.5 c 128,-1,3
 428 1464 428 1464 415 1464 c 0,4,5
 377 1464 377 1464 359 1427.5 c 128,-1,6
 341 1391 341 1391 339 1309 c 1,7,-1
 214 1309 l 1,8,9
 216 1444 216 1444 267 1517.5 c 128,-1,10
 318 1591 318 1591 409 1591 c 0,11,12
 447 1591 447 1591 479 1577 c 128,-1,13
 511 1563 511 1563 548 1530 c 1,14,-1
 605 1475 l 2,15,16
 627 1455 627 1455 643.5 1445.5 c 128,-1,17
 660 1436 660 1436 673 1436 c 0,18,19
 711 1436 711 1436 729 1472.5 c 128,-1,20
 747 1509 747 1509 749 1591 c 1,21,-1
 874 1591 l 1,22,23
 872 1456 872 1456 821 1382.5 c 128,-1,24
 770 1309 770 1309 679 1309 c 0,25,26
 641 1309 641 1309 609 1323 c 128,-1,27
 577 1337 577 1337 540 1370 c 1,0,-1
EndSplineSet
Validated: 1
EndChar

StartChar: macron
Encoding: 175 175 217
Width: 1146
Flags: W
LayerCount: 2
Fore
SplineSet
275 1526 m 1,0,-1
 873 1526 l 1,1,-1
 873 1378 l 1,2,-1
 275 1378 l 1,3,-1
 275 1526 l 1,0,-1
EndSplineSet
Validated: 1
EndChar

StartChar: breve
Encoding: 728 728 218
Width: 963
Flags: W
LayerCount: 2
Fore
SplineSet
170 1608 m 1,0,-1
 288 1608 l 1,1,2
 299 1533 299 1533 347.5 1495.5 c 128,-1,3
 396 1458 396 1458 483 1458 c 0,4,5
 569 1458 569 1458 617 1495 c 128,-1,6
 665 1532 665 1532 678 1608 c 1,7,-1
 796 1608 l 1,8,9
 786 1465 786 1465 707 1393 c 128,-1,10
 628 1321 628 1321 483 1321 c 256,11,12
 338 1321 338 1321 259 1393 c 128,-1,13
 180 1465 180 1465 170 1608 c 1,0,-1
EndSplineSet
Validated: 1
EndChar

StartChar: dotaccent
Encoding: 729 729 219
Width: 747
Flags: W
LayerCount: 2
Fore
SplineSet
275 1552 m 1,0,-1
 479 1552 l 1,1,-1
 479 1348 l 1,2,-1
 275 1348 l 1,3,-1
 275 1552 l 1,0,-1
EndSplineSet
Validated: 1
EndChar

StartChar: ring
Encoding: 730 730 220
Width: 879
Flags: W
LayerCount: 2
Fore
SplineSet
592 1524 m 0,0,1
 592 1587 592 1587 548 1631 c 128,-1,2
 504 1675 504 1675 440 1675 c 0,3,4
 375 1675 375 1675 331.5 1631.5 c 128,-1,5
 288 1588 288 1588 288 1524 c 0,6,7
 288 1459 288 1459 331.5 1415.5 c 128,-1,8
 375 1372 375 1372 440 1372 c 0,9,10
 504 1372 504 1372 548 1416 c 128,-1,11
 592 1460 592 1460 592 1524 c 0,0,1
714 1524 m 256,12,13
 714 1409 714 1409 634.5 1329 c 128,-1,14
 555 1249 555 1249 440 1249 c 256,15,16
 325 1249 325 1249 245.5 1329 c 128,-1,17
 166 1409 166 1409 166 1524 c 256,18,19
 166 1639 166 1639 245.5 1718.5 c 128,-1,20
 325 1798 325 1798 440 1798 c 256,21,22
 555 1798 555 1798 634.5 1718.5 c 128,-1,23
 714 1639 714 1639 714 1524 c 256,12,13
EndSplineSet
Validated: 1
EndChar

StartChar: cedilla
Encoding: 184 184 221
Width: 648
Flags: W
LayerCount: 2
Fore
SplineSet
367 0 m 1,0,1
 422 -62 422 -62 449 -114.5 c 128,-1,2
 476 -167 476 -167 476 -215 c 0,3,4
 476 -304 476 -304 416 -349.5 c 128,-1,5
 356 -395 356 -395 238 -395 c 0,6,7
 192 -395 192 -395 148.5 -389 c 128,-1,8
 105 -383 105 -383 62 -371 c 1,9,-1
 62 -240 l 1,10,11
 96 -257 96 -257 133 -264.5 c 128,-1,12
 170 -272 170 -272 217 -272 c 0,13,14
 276 -272 276 -272 306 -248 c 128,-1,15
 336 -224 336 -224 336 -178 c 0,16,17
 336 -148 336 -148 314.5 -104.5 c 128,-1,18
 293 -61 293 -61 248 0 c 1,19,-1
 367 0 l 1,0,1
EndSplineSet
Validated: 1
EndChar

StartChar: hungarumlaut
Encoding: 733 733 222
Width: 931
Flags: W
LayerCount: 2
Fore
SplineSet
657 1638 m 1,0,-1
 835 1638 l 1,1,-1
 587 1262 l 1,2,-1
 452 1262 l 1,3,-1
 657 1638 l 1,0,-1
323 1638 m 1,4,-1
 493 1638 l 1,5,-1
 270 1262 l 1,6,-1
 133 1262 l 1,7,-1
 323 1638 l 1,4,-1
EndSplineSet
Validated: 1
EndChar

StartChar: ogonek
Encoding: 731 731 223
Width: 618
Flags: W
LayerCount: 2
Fore
SplineSet
277 0 m 1,0,-1
 396 0 l 1,1,2
 351 -61 351 -61 329.5 -105 c 128,-1,3
 308 -149 308 -149 308 -180 c 0,4,5
 308 -226 308 -226 335.5 -249 c 128,-1,6
 363 -272 363 -272 417 -272 c 0,7,8
 449 -272 449 -272 480 -264.5 c 128,-1,9
 511 -257 511 -257 542 -242 c 1,10,-1
 542 -375 l 1,11,12
 504 -385 504 -385 470 -390 c 128,-1,13
 436 -395 436 -395 406 -395 c 0,14,15
 284 -395 284 -395 226.5 -351.5 c 128,-1,16
 169 -308 169 -308 169 -215 c 0,17,18
 169 -167 169 -167 195.5 -114.5 c 128,-1,19
 222 -62 222 -62 277 0 c 1,0,-1
EndSplineSet
Validated: 1
EndChar

StartChar: caron
Encoding: 711 711 224
Width: 807
Flags: W
LayerCount: 2
Fore
SplineSet
329 1262 m 1,0,-1
 84 1638 l 1,1,-1
 223 1638 l 1,2,-1
 403 1393 l 1,3,-1
 583 1638 l 1,4,-1
 722 1638 l 1,5,-1
 477 1262 l 1,6,-1
 329 1262 l 1,0,-1
EndSplineSet
Validated: 1
EndChar

StartChar: Lslash
Encoding: 321 321 225
Width: 1253
Flags: W
LayerCount: 2
Fore
SplineSet
319 1493 m 1,0,-1
 522 1493 l 1,1,-1
 522 877 l 1,2,-1
 835 1096 l 1,3,-1
 915 985 l 1,4,-1
 522 711 l 1,5,-1
 522 170 l 1,6,-1
 1249 170 l 1,7,-1
 1249 0 l 1,8,-1
 319 0 l 1,9,-1
 319 571 l 1,10,-1
 171 465 l 1,11,-1
 94 575 l 1,12,-1
 319 733 l 1,13,-1
 319 1493 l 1,0,-1
EndSplineSet
Validated: 1
EndChar

StartChar: lslash
Encoding: 322 322 226
Width: 618
Flags: W
LayerCount: 2
Fore
SplineSet
217 1556 m 1,0,-1
 401 1556 l 1,1,-1
 401 954 l 1,2,-1
 526 1044 l 1,3,-1
 602 938 l 1,4,-1
 401 797 l 1,5,-1
 401 0 l 1,6,-1
 217 0 l 1,7,-1
 217 666 l 1,8,-1
 94 578 l 1,9,-1
 20 684 l 1,10,-1
 217 825 l 1,11,-1
 217 1556 l 1,0,-1
EndSplineSet
Validated: 1
EndChar

StartChar: brokenbar
Encoding: 166 166 231
Width: 712
Flags: W
LayerCount: 2
Fore
SplineSet
445 408 m 1,0,-1
 445 -350 l 1,1,-1
 275 -350 l 1,2,-1
 275 408 l 1,3,-1
 445 408 l 1,0,-1
445 1432 m 1,4,-1
 445 674 l 1,5,-1
 275 674 l 1,6,-1
 275 1432 l 1,7,-1
 445 1432 l 1,4,-1
EndSplineSet
Validated: 1
EndChar

StartChar: Eth
Encoding: 208 208 232
Width: 1771
Flags: W
LayerCount: 2
Fore
SplineSet
335 1493 m 1,0,-1
 751 1493 l 2,1,2
 1184 1493 1184 1493 1387 1312.5 c 128,-1,3
 1590 1132 1590 1132 1590 748 c 0,4,5
 1590 362 1590 362 1386.5 181 c 128,-1,6
 1183 0 1183 0 751 0 c 2,7,-1
 335 0 l 1,8,-1
 335 700 l 1,9,-1
 134 700 l 1,10,-1
 134 844 l 1,11,-1
 335 844 l 1,12,-1
 335 1493 l 1,0,-1
538 1327 m 1,13,-1
 538 844 l 1,14,-1
 874 844 l 1,15,-1
 874 700 l 1,16,-1
 538 700 l 1,17,-1
 538 166 l 1,18,-1
 781 166 l 2,19,20
 1090 166 1090 166 1233.5 306 c 128,-1,21
 1377 446 1377 446 1377 748 c 0,22,23
 1377 1048 1377 1048 1233.5 1187.5 c 128,-1,24
 1090 1327 1090 1327 781 1327 c 2,25,-1
 538 1327 l 1,13,-1
EndSplineSet
Validated: 1
EndChar

StartChar: eth
Encoding: 240 240 233
Width: 1314
Flags: W
LayerCount: 2
Fore
SplineSet
863 915 m 1,0,1
 813 932 813 932 769 940 c 128,-1,2
 725 948 725 948 684 948 c 0,3,4
 517 948 517 948 424.5 840 c 128,-1,5
 332 732 332 732 332 537 c 0,6,7
 332 349 332 349 419 238 c 128,-1,8
 506 127 506 127 652 127 c 0,9,10
 797 127 797 127 884 238 c 128,-1,11
 971 349 971 349 971 537 c 0,12,13
 971 659 971 659 944 753 c 128,-1,14
 917 847 917 847 863 915 c 1,0,1
926 1141 m 2,15,16
 1052 998 1052 998 1109 854 c 128,-1,17
 1166 710 1166 710 1166 537 c 0,18,19
 1166 282 1166 282 1024 126.5 c 128,-1,20
 882 -29 882 -29 652 -29 c 0,21,22
 421 -29 421 -29 279.5 126.5 c 128,-1,23
 138 282 138 282 138 537 c 0,24,25
 138 787 138 787 276 942.5 c 128,-1,26
 414 1098 414 1098 635 1098 c 0,27,28
 653 1098 653 1098 679 1095.5 c 128,-1,29
 705 1093 705 1093 747 1088 c 1,30,-1
 588 1268 l 1,31,-1
 269 1161 l 1,32,-1
 236 1260 l 1,33,-1
 517 1352 l 1,34,-1
 336 1556 l 1,35,-1
 564 1556 l 1,36,-1
 691 1411 l 1,37,-1
 1024 1522 l 1,38,-1
 1057 1425 l 1,39,-1
 762 1327 l 1,40,-1
 926 1141 l 2,15,16
EndSplineSet
Validated: 1
EndChar

StartChar: Thorn
Encoding: 222 222 236
Width: 1242
Flags: W
LayerCount: 2
Fore
SplineSet
275 1493 m 1,0,-1
 477 1493 l 1,1,-1
 477 1229 l 1,2,-1
 731 1229 l 2,3,4
 982 1229 982 1229 1110.5 1116.5 c 128,-1,5
 1239 1004 1239 1004 1239 784 c 256,6,7
 1239 564 1239 564 1110.5 451 c 128,-1,8
 982 338 982 338 731 338 c 2,9,-1
 477 338 l 1,10,-1
 477 0 l 1,11,-1
 275 0 l 1,12,-1
 275 1493 l 1,0,-1
477 1063 m 1,13,-1
 477 504 l 1,14,-1
 731 504 l 2,15,16
 872 504 872 504 949 577 c 128,-1,17
 1026 650 1026 650 1026 784 c 256,18,19
 1026 918 1026 918 949.5 990.5 c 128,-1,20
 873 1063 873 1063 731 1063 c 2,21,-1
 477 1063 l 1,13,-1
EndSplineSet
Validated: 1
EndChar

StartChar: thorn
Encoding: 254 254 237
Width: 1278
Flags: W
LayerCount: 2
Fore
SplineSet
460 168 m 1,0,-1
 460 -426 l 1,1,-1
 275 -426 l 1,2,-1
 275 1556 l 1,3,-1
 460 1556 l 1,4,-1
 460 950 l 1,5,6
 518 1050 518 1050 606.5 1098.5 c 128,-1,7
 695 1147 695 1147 818 1147 c 0,8,9
 1022 1147 1022 1147 1149.5 985 c 128,-1,10
 1277 823 1277 823 1277 559 c 256,11,12
 1277 295 1277 295 1149.5 133 c 128,-1,13
 1022 -29 1022 -29 818 -29 c 0,14,15
 695 -29 695 -29 606.5 19.5 c 128,-1,16
 518 68 518 68 460 168 c 1,0,-1
1086 559 m 256,17,18
 1086 762 1086 762 1002.5 877.5 c 128,-1,19
 919 993 919 993 773 993 c 256,20,21
 627 993 627 993 543.5 877.5 c 128,-1,22
 460 762 460 762 460 559 c 256,23,24
 460 356 460 356 543.5 240.5 c 128,-1,25
 627 125 627 125 773 125 c 256,26,27
 919 125 919 125 1002.5 240.5 c 128,-1,28
 1086 356 1086 356 1086 559 c 256,17,18
EndSplineSet
Validated: 1
EndChar

StartChar: minus
Encoding: 8722 8722 238
Width: 1831
Flags: W
LayerCount: 2
Fore
SplineSet
275 727 m 1,0,-1
 1557 727 l 1,1,-1
 1557 557 l 1,2,-1
 275 557 l 1,3,-1
 275 727 l 1,0,-1
EndSplineSet
Validated: 1
EndChar

StartChar: multiply
Encoding: 215 215 239
Width: 1455
Flags: W
LayerCount: 2
Fore
SplineSet
1259 1050 m 1,0,-1
 872 661 l 1,1,-1
 1249 284 l 1,2,-1
 1080 113 l 1,3,-1
 701 492 l 1,4,-1
 322 113 l 1,5,-1
 154 284 l 1,6,-1
 530 661 l 1,7,-1
 174 1020 l 1,8,-1
 342 1191 l 1,9,-1
 701 832 l 1,10,-1
 1090 1221 l 1,11,-1
 1259 1050 l 1,0,-1
EndSplineSet
Validated: 1
EndChar

StartChar: onesuperior
Encoding: 185 185 240
Width: 848
Flags: W
LayerCount: 2
Fore
SplineSet
221 778 m 1,0,-1
 425 778 l 1,1,-1
 425 1389 l 1,2,-1
 202 1348 l 1,3,-1
 202 1464 l 1,4,-1
 432 1503 l 1,5,-1
 569 1503 l 1,6,-1
 569 778 l 1,7,-1
 774 778 l 1,8,-1
 774 668 l 1,9,-1
 221 668 l 1,10,-1
 221 778 l 1,0,-1
EndSplineSet
Validated: 1
EndChar

StartChar: twosuperior
Encoding: 178 178 241
Width: 1009
Flags: W
LayerCount: 2
Fore
SplineSet
416 782 m 1,0,-1
 840 782 l 1,1,-1
 840 668 l 1,2,-1
 242 668 l 1,3,-1
 242 778 l 1,4,5
 276 809 276 809 339 865 c 0,6,7
 683 1170 683 1170 683 1264 c 0,8,9
 683 1330 683 1330 631 1370.5 c 128,-1,10
 579 1411 579 1411 494 1411 c 0,11,12
 442 1411 442 1411 381 1393.5 c 128,-1,13
 320 1376 320 1376 248 1341 c 1,14,-1
 248 1464 l 1,15,16
 325 1492 325 1492 391.5 1506 c 128,-1,17
 458 1520 458 1520 515 1520 c 0,18,19
 660 1520 660 1520 747 1454 c 128,-1,20
 834 1388 834 1388 834 1280 c 0,21,22
 834 1141 834 1141 503 857 c 0,23,24
 447 809 447 809 416 782 c 1,0,-1
EndSplineSet
Validated: 1
EndChar

StartChar: threesuperior
Encoding: 179 179 242
Width: 1008
Flags: W
LayerCount: 2
Fore
SplineSet
640 1120 m 1,0,1
 732 1102 732 1102 782.5 1047.5 c 128,-1,2
 833 993 833 993 833 911 c 0,3,4
 833 787 833 787 738 720 c 128,-1,5
 643 653 643 653 466 653 c 0,6,7
 409 653 409 653 346.5 663.5 c 128,-1,8
 284 674 284 674 214 694 c 1,9,-1
 214 815 l 1,10,11
 266 788 266 788 325.5 775 c 128,-1,12
 385 762 385 762 452 762 c 0,13,14
 561 762 561 762 621 801.5 c 128,-1,15
 681 841 681 841 681 911 c 0,16,17
 681 985 681 985 625.5 1023 c 128,-1,18
 570 1061 570 1061 462 1061 c 2,19,-1
 376 1061 l 1,20,-1
 376 1169 l 1,21,-1
 470 1169 l 2,22,23
 564 1169 564 1169 612.5 1200.5 c 128,-1,24
 661 1232 661 1232 661 1292 c 0,25,26
 661 1350 661 1350 611 1380.5 c 128,-1,27
 561 1411 561 1411 466 1411 c 0,28,29
 426 1411 426 1411 375 1402 c 128,-1,30
 324 1393 324 1393 243 1370 c 1,31,-1
 243 1485 l 1,32,33
 316 1502 316 1502 380 1511 c 128,-1,34
 444 1520 444 1520 499 1520 c 0,35,36
 643 1520 643 1520 727.5 1461 c 128,-1,37
 812 1402 812 1402 812 1303 c 0,38,39
 812 1234 812 1234 767 1186 c 128,-1,40
 722 1138 722 1138 640 1120 c 1,0,1
EndSplineSet
Validated: 1
EndChar

StartChar: dcroat
Encoding: 273 273 255
Width: 1390
Flags: W
LayerCount: 2
Fore
SplineSet
904 950 m 1,0,-1
 904 1284 l 1,1,-1
 578 1284 l 1,2,-1
 578 1409 l 1,3,-1
 904 1409 l 1,4,-1
 904 1556 l 1,5,-1
 1088 1556 l 1,6,-1
 1088 1409 l 1,7,-1
 1242 1409 l 1,8,-1
 1242 1284 l 1,9,-1
 1088 1284 l 1,10,-1
 1088 0 l 1,11,-1
 904 0 l 1,12,-1
 904 168 l 1,13,14
 846 68 846 68 757.5 19.5 c 128,-1,15
 669 -29 669 -29 545 -29 c 0,16,17
 342 -29 342 -29 214.5 133 c 128,-1,18
 87 295 87 295 87 559 c 256,19,20
 87 823 87 823 214.5 985 c 128,-1,21
 342 1147 342 1147 545 1147 c 0,22,23
 669 1147 669 1147 757.5 1098.5 c 128,-1,24
 846 1050 846 1050 904 950 c 1,0,-1
277 602 m 256,25,26
 277 419 277 419 360.5 315 c 128,-1,27
 444 211 444 211 590 211 c 256,28,29
 736 211 736 211 820 315 c 128,-1,30
 904 419 904 419 904 602 c 256,31,32
 904 785 904 785 820 889 c 128,-1,33
 736 993 736 993 590 993 c 256,34,35
 444 993 444 993 360.5 889 c 128,-1,36
 277 785 277 785 277 602 c 256,25,26
EndSplineSet
Validated: 1
EndChar

StartChar: sfthyphen
Encoding: 173 173 256
Width: 1087
Flags: W
LayerCount: 2
Fore
SplineSet
275 643 m 1,0,-1
 814 643 l 1,1,-1
 814 479 l 1,2,-1
 275 479 l 1,3,-1
 275 643 l 1,0,-1
EndSplineSet
Validated: 1
EndChar

StartChar: middot.001
Encoding: 8729 8729 257
Width: 817
Flags: W
LayerCount: 2
Fore
SplineSet
275 911 m 1,0,-1
 547 911 l 1,1,-1
 547 584 l 1,2,-1
 275 584 l 1,3,-1
 275 911 l 1,0,-1
EndSplineSet
Validated: 1
EndChar

StartChar: Euro
Encoding: 8364 8364 258
Width: 1454
Flags: W
LayerCount: 2
Fore
SplineSet
1228 1378 m 1,0,-1
 1228 1215 l 1,1,2
 1137 1320 1137 1320 1052.5 1365 c 128,-1,3
 968 1410 968 1410 866 1410 c 0,4,5
 709 1410 709 1410 608 1285 c 128,-1,6
 507 1160 507 1160 475 973 c 1,7,-1
 1052 973 l 1,8,-1
 997 850 l 1,9,-1
 459 850 l 1,10,11
 457 826 457 826 456.5 803 c 128,-1,12
 456 780 456 780 456 745 c 0,13,14
 456 713 456 713 456.5 690 c 128,-1,15
 457 667 457 667 459 643 c 1,16,-1
 905 643 l 1,17,-1
 849 480 l 1,18,-1
 485 480 l 1,19,20
 497 423 497 423 598 322 c 128,-1,21
 699 221 699 221 856 221 c 0,22,23
 958 221 958 221 1042.5 266 c 128,-1,24
 1127 311 1127 311 1228 416 c 1,25,-1
 1228 115 l 1,26,27
 1139 43 1139 43 1046.5 7 c 128,-1,28
 954 -29 954 -29 858 -29 c 0,29,30
 621 -29 621 -29 466.5 116 c 128,-1,31
 312 261 312 261 282 480 c 1,32,-1
 61 480 l 1,33,-1
 116 643 l 1,34,-1
 255 643 l 1,35,36
 255 666 255 666 254.5 689.5 c 128,-1,37
 254 713 254 713 254 745 c 0,38,39
 254 780 254 780 254.5 803.5 c 128,-1,40
 255 827 255 827 255 850 c 1,41,-1
 61 850 l 1,42,-1
 116 973 l 1,43,-1
 272 973 l 1,44,45
 312 1230 312 1230 467 1375 c 128,-1,46
 622 1520 622 1520 858 1520 c 0,47,48
 956 1520 956 1520 1048.5 1484.5 c 128,-1,49
 1141 1449 1141 1449 1228 1378 c 1,0,-1
EndSplineSet
Validated: 1
EndChar

StartChar: c6459
Encoding: 65537 -1 259
Width: 1142
Flags: W
LayerCount: 2
Fore
SplineSet
666 1497 m 1,0,-1
 869 1497 l 1,1,-1
 869 1294 l 1,2,-1
 666 1294 l 1,3,-1
 666 1497 l 1,0,-1
275 1497 m 1,4,-1
 478 1497 l 1,5,-1
 478 1294 l 1,6,-1
 275 1294 l 1,7,-1
 275 1497 l 1,4,-1
EndSplineSet
Validated: 1
EndChar

StartChar: c6460
Encoding: 65538 -1 260
Width: 456
Flags: W
LayerCount: 2
Fore
SplineSet
245 1526 m 1,0,-1
 430 1526 l 1,1,-1
 202 1262 l 1,2,-1
 49 1262 l 1,3,-1
 245 1526 l 1,0,-1
EndSplineSet
Validated: 1
EndChar

StartChar: c6461
Encoding: 65539 -1 261
Width: 1083
Flags: W
LayerCount: 2
Fore
SplineSet
540 1337 m 1,0,-1
 483 1370 l 2,1,2
 458 1384 458 1384 442.5 1389.5 c 128,-1,3
 427 1395 427 1395 415 1395 c 0,4,5
 379 1395 379 1395 359 1370 c 128,-1,6
 339 1345 339 1345 339 1300 c 2,7,-1
 339 1294 l 1,8,-1
 214 1294 l 1,9,10
 214 1395 214 1395 265.5 1454 c 128,-1,11
 317 1513 317 1513 403 1513 c 0,12,13
 439 1513 439 1513 469.5 1505 c 128,-1,14
 500 1497 500 1497 548 1470 c 1,15,-1
 605 1440 l 2,16,17
 628 1427 628 1427 645 1421 c 128,-1,18
 662 1415 662 1415 677 1415 c 0,19,20
 709 1415 709 1415 729 1440.5 c 128,-1,21
 749 1466 749 1466 749 1507 c 2,22,-1
 749 1513 l 1,23,-1
 874 1513 l 1,24,25
 872 1413 872 1413 820.5 1353.5 c 128,-1,26
 769 1294 769 1294 685 1294 c 0,27,28
 651 1294 651 1294 621.5 1302 c 128,-1,29
 592 1310 592 1310 540 1337 c 1,0,-1
EndSplineSet
Validated: 1
EndChar

StartChar: c6462
Encoding: 65540 -1 262
Width: 457
Flags: W
LayerCount: 2
Fore
SplineSet
212 1526 m 1,0,-1
 408 1262 l 1,1,-1
 255 1262 l 1,2,-1
 25 1526 l 1,3,-1
 212 1526 l 1,0,-1
EndSplineSet
Validated: 1
EndChar

StartChar: c6463
Encoding: 65541 -1 263
Width: 817
Flags: W
LayerCount: 2
Fore
SplineSet
314 1528 m 1,0,-1
 502 1528 l 1,1,-1
 713 1262 l 1,2,-1
 574 1262 l 1,3,-1
 408 1440 l 1,4,-1
 242 1262 l 1,5,-1
 103 1262 l 1,6,-1
 314 1528 l 1,0,-1
EndSplineSet
Validated: 1
EndChar

StartChar: c6466
Encoding: 65542 -1 264
Width: 806
Flags: W
LayerCount: 2
Fore
SplineSet
308 1262 m 1,0,-1
 97 1528 l 1,1,-1
 236 1528 l 1,2,-1
 402 1350 l 1,3,-1
 568 1528 l 1,4,-1
 707 1528 l 1,5,-1
 496 1262 l 1,6,-1
 308 1262 l 1,0,-1
EndSplineSet
Validated: 1
EndChar

StartChar: c6467
Encoding: 65543 -1 265
Width: 806
Flags: W
LayerCount: 2
Fore
SplineSet
432 1382 m 1,0,-1
 123 963 l 1,1,-1
 432 963 l 1,2,-1
 432 1382 l 1,0,-1
410 1503 m 1,3,-1
 576 1503 l 1,4,-1
 576 963 l 1,5,-1
 711 963 l 1,6,-1
 711 854 l 1,7,-1
 576 854 l 1,8,-1
 576 668 l 1,9,-1
 432 668 l 1,10,-1
 432 854 l 1,11,-1
 18 854 l 1,12,-1
 18 975 l 1,13,-1
 410 1503 l 1,3,-1
EndSplineSet
Validated: 1
EndChar

StartChar: c6468
Encoding: 65544 -1 266
Width: 963
Flags: W
LayerCount: 2
Fore
SplineSet
170 1528 m 1,0,-1
 288 1528 l 1,1,2
 301 1474 301 1474 350.5 1445.5 c 128,-1,3
 400 1417 400 1417 483 1417 c 0,4,5
 565 1417 565 1417 613.5 1444.5 c 128,-1,6
 662 1472 662 1472 678 1528 c 1,7,-1
 796 1528 l 1,8,9
 786 1409 786 1409 706 1347.5 c 128,-1,10
 626 1286 626 1286 483 1286 c 0,11,12
 339 1286 339 1286 259.5 1347 c 128,-1,13
 180 1408 180 1408 170 1528 c 1,0,-1
EndSplineSet
Validated: 1
EndChar

StartChar: c6469
Encoding: 65545 -1 267
Width: 747
Flags: W
LayerCount: 2
Fore
SplineSet
275 1499 m 1,0,-1
 479 1499 l 1,1,-1
 479 1294 l 1,2,-1
 275 1294 l 1,3,-1
 275 1499 l 1,0,-1
EndSplineSet
Validated: 1
EndChar

